  0
SECTION
  2
HEADER
  9
$ACADVER
  1
AC1009
  9
$INSBASE
 10
0.0
 20
0.0
 30
0.0
  9
$EXTMIN
 10
0.0
 20
0.0
 30
0.0
  9
$EXTMAX
 10
100.0
 20
100.0
 30
0.0
  9
$UNITMODE
 70
0
  9
$AUNITS
 70
0
  9
$ANGBASE
 50
0.0
  9
$ANGDIR
 70
0
  0
ENDSEC
  0
SECTION
  2
TABLES
  0
TABLE
  2
LTYPE
 70
19
  0
LTYPE
  2
CONTINUOUS
 70
0
  3
Solid
 72
65
 73
0
 40
0.0
  0
LTYPE
  2
CENTER
 70
0
  3
Center ____ _ ____ _ ____ _ ____ _ ____ _ ____
 72
65
 73
4
 40
2.0
 49
1.25
 49
-0.25
 49
0.25
 49
-0.25
  0
LTYPE
  2
CENTERX2
 70
0
  3
Center (2x) ________  __  ________  __  ________
 72
65
 73
4
 40
3.5
 49
2.5
 49
-0.25
 49
0.5
 49
-0.25
  0
LTYPE
  2
CENTER2
 70
0
  3
Center (.5x) ____ _ ____ _ ____ _ ____ _ ____
 72
65
 73
4
 40
1.0
 49
0.625
 49
-0.125
 49
0.125
 49
-0.125
  0
LTYPE
  2
DASHED
 70
0
  3
Dashed __ __ __ __ __ __ __ __ __ __ __ __ __ _
 72
65
 73
2
 40
0.6
 49
0.5
 49
-0.1
  0
LTYPE
  2
DASHEDX2
 70
0
  3
Dashed (2x) ____  ____  ____  ____  ____  ____
 72
65
 73
2
 40
1.2
 49
1.0
 49
-0.2
  0
LTYPE
  2
DASHED2
 70
0
  3
Dashed (.5x) _ _ _ _ _ _ _ _ _ _ _ _ _ _
 72
65
 73
2
 40
0.3
 49
0.25
 49
-0.05
  0
LTYPE
  2
PHANTOM
 70
0
  3
Phantom ______  __  __  ______  __  __  ______
 72
65
 73
6
 40
2.5
 49
1.25
 49
-0.25
 49
0.25
 49
-0.25
 49
0.25
 49
-0.25
  0
LTYPE
  2
PHANTOMX2
 70
0
  3
Phantom (2x)____________    ____    ____    ____________
 72
65
 73
6
 40
4.25
 49
2.5
 49
-0.25
 49
0.5
 49
-0.25
 49
0.5
 49
-0.25
  0
LTYPE
  2
PHANTOM2
 70
0
  3
Phantom (.5x) ___ _ _ ___ _ _ ___ _ _ ___ _ _ ___
 72
65
 73
6
 40
1.25
 49
0.625
 49
-0.125
 49
0.125
 49
-0.125
 49
0.125
 49
-0.125
  0
LTYPE
  2
DASHDOT
 70
0
  3
Dash dot __ . __ . __ . __ . __ . __ . __ . __
 72
65
 73
4
 40
1.4
 49
1.0
 49
-0.2
 49
0.0
 49
-0.2
  0
LTYPE
  2
DASHDOTX2
 70
0
  3
Dash dot (2x) ____  .  ____  .  ____  .  ____
 72
65
 73
4
 40
2.4
 49
2.0
 49
-0.2
 49
0.0
 49
-0.2
  0
LTYPE
  2
DASHDOT2
 70
0
  3
Dash dot (.5x) _ . _ . _ . _ . _ . _ . _ . _
 72
65
 73
4
 40
0.7
 49
0.5
 49
-0.1
 49
0.0
 49
-0.1
  0
LTYPE
  2
DOT
 70
0
  3
Dot .  .  .  .  .  .  .  .  .  .  .  .  .  .  .  .
 72
65
 73
2
 40
0.2
 49
0.0
 49
-0.2
  0
LTYPE
  2
DOTX2
 70
0
  3
Dot (2x) .    .    .    .    .    .    .    . 
 72
65
 73
2
 40
0.4
 49
0.0
 49
-0.4
  0
LTYPE
  2
DOT2
 70
0
  3
Dot (.5) . . . . . . . . . . . . . . . . . . . 
 72
65
 73
2
 40
0.1
 49
0.0
 49
-0.1
  0
LTYPE
  2
DIVIDE
 70
0
  3
Divide __ . . __ . . __ . . __ . . __ . . __
 72
65
 73
6
 40
1.6
 49
1.0
 49
-0.2
 49
0.0
 49
-0.2
 49
0.0
 49
-0.2
  0
LTYPE
  2
DIVIDEX2
 70
0
  3
Divide (2x) ____  . .  ____  . .  ____  . .  ____
 72
65
 73
6
 40
2.6
 49
2.0
 49
-0.2
 49
0.0
 49
-0.2
 49
0.0
 49
-0.2
  0
LTYPE
  2
DIVIDE2
 70
0
  3
Divide(.5x) _ . _ . _ . _ . _ . _ . _ . _
 72
65
 73
6
 40
0.8
 49
0.5
 49
-0.1
 49
0.0
 49
-0.1
 49
0.0
 49
-0.1
  0
ENDTAB
  0
TABLE
  2
LAYER
 70
5
  0
LAYER
  2
DIMENSIONS
 70
0
 62
1
  6
CONTINUOUS
  0
LAYER
  2
TABLEBACKGROUND
 70
0
 62
1
  6
CONTINUOUS
  0
LAYER
  2
TABLECONTENT
 70
0
 62
1
  6
CONTINUOUS
  0
LAYER
  2
TABLEGRID
 70
0
 62
1
  6
CONTINUOUS
  0
LAYER
  2
VIEWPORTS
 70
0
 62
7
  6
CONTINUOUS
  0
ENDTAB
  0
TABLE
  2
STYLE
 70
12
  0
STYLE
  2
STANDARD
 70
0
 40
0.0
 41
1.0
 42
1.0
 50
0.0
 71
0
  3
arial.ttf
  4

  0
STYLE
  2
ARIAL
 70
0
 40
0.0
 41
1.0
 42
1.0
 50
0.0
 71
0
  3
arial.ttf
  4

  0
STYLE
  2
ARIAL_BOLD
 70
0
 40
0.0
 41
1.0
 42
1.0
 50
0.0
 71
0
  3
arialbd.ttf
  4

  0
STYLE
  2
ARIAL_ITALIC
 70
0
 40
0.0
 41
1.0
 42
1.0
 50
0.0
 71
0
  3
ariali.ttf
  4

  0
STYLE
  2
ARIAL_BOLD_ITALIC
 70
0
 40
0.0
 41
1.0
 42
1.0
 50
0.0
 71
0
  3
arialbi.ttf
  4

  0
STYLE
  2
ARIAL_BLACK
 70
0
 40
0.0
 41
1.0
 42
1.0
 50
0.0
 71
0
  3
ariblk.ttf
  4

  0
STYLE
  2
ISOCPEUR
 70
0
 40
0.0
 41
1.0
 42
1.0
 50
0.0
 71
0
  3
isocpeur.ttf
  4

  0
STYLE
  2
ISOCPEUR_ITALIC
 70
0
 40
0.0
 41
1.0
 42
1.0
 50
0.0
 71
0
  3
isocpeui.ttf
  4

  0
STYLE
  2
TIMES
 70
0
 40
0.0
 41
1.0
 42
1.0
 50
0.0
 71
0
  3
times.ttf
  4

  0
STYLE
  2
TIMES_BOLD
 70
0
 40
0.0
 41
1.0
 42
1.0
 50
0.0
 71
0
  3
timesbd.ttf
  4

  0
STYLE
  2
TIMES_ITALIC
 70
0
 40
0.0
 41
1.0
 42
1.0
 50
0.0
 71
0
  3
timesi.ttf
  4

  0
STYLE
  2
TIMES_BOLD_ITALIC
 70
0
 40
0.0
 41
1.0
 42
1.0
 50
0.0
 71
0
  3
timesbi.ttf
  4

  0
ENDTAB
  0
TABLE
  2
VIEW
 70
0
  0
ENDTAB
  0
TABLE
  2
APPID
 70
1
  0
APPID
  2
DXFWRITE
 70
0
  0
ENDTAB
  0
TABLE
  2
VPORT
 70
0
  0
ENDTAB
  0
TABLE
  2
UCS
 70
0
  0
ENDTAB
  0
ENDSEC
  0
SECTION
  2
BLOCKS
  0
ENDSEC
  0
SECTION
  2
ENTITIES
  0
VIEWPORT
  8
VIEWPORTS
 67
1
 10
0.0
 20
0.0
 30
0.0
 40
1.0
 41
1.0
 68
1
 69
1
1001
ACAD
1000
MVIEW
1002
{
1070
16
1010
0.0
1020
0.0
1030
0.0
1010
0.0
1020
0.0
1030
0.0
1040
0.0
1040
1.0
1040
0.0
1040
0.0
1040
50.0
1040
0.0
1040
0.0
1070
0
1070
100
1070
1
1070
3
1070
0
1070
0
1070
0
1070
0
1040
0.0
1040
0.0
1040
0.0
1040
0.1
1040
0.1
1040
0.1
1040
0.1
1070
0
1002
{
1002
}
1002
}
  0
POLYLINE
 62
256
  8
0
 66
1
 10
0.0
 20
0.0
 30
0.0
 70
9
  0
VERTEX
  8
0
 10
0.0
 20
0.0
 30
0.0
  0
VERTEX
  8
0
 10
1.0721735146688338
 20
0.0
 30
0.0
  0
VERTEX
  8
0
 10
1.0721735146688338
 20
0.5003476401787891
 30
0.0
  0
VERTEX
  8
0
 10
0.0
 20
0.5003476401787891
 30
0.0
  0
SEQEND
  0
SOLID
 62
174
  8
0
 10
0.0
 20
0.0
 30
0.0
 11
1.0721735146688338
 21
0.0
 31
0.0
 13
1.0721735146688338
 23
0.5003476401787891
 33
0.0
 12
0.0
 22
0.5003476401787891
 32
0.0
  0
POLYLINE
 62
72
  8
0
 66
1
 10
0.0
 20
0.0
 30
0.0
 70
9
  0
VERTEX
  8
0
 10
40.0
 20
0.0
 30
0.0
  0
VERTEX
  8
0
 10
40.36508403920217
 20
1.0081020235458056
 30
0.0
  0
VERTEX
  8
0
 10
39.89463642821413
 20
1.1784745751734853
 30
0.0
  0
VERTEX
  8
0
 10
39.529552389011954
 20
0.17037255162767967
 30
0.0
  0
SEQEND
  0
POLYLINE
 62
256
  8
0
 66
1
 10
0.0
 20
0.0
 30
0.0
 70
9
  0
VERTEX
  8
0
 10
0.0
 20
3.0
 30
0.0
  0
VERTEX
  8
0
 10
0.8173323898483671
 20
3.0
 30
0.0
  0
VERTEX
  8
0
 10
0.8173323898483671
 20
3.381421781929238
 30
0.0
  0
VERTEX
  8
0
 10
0.0
 20
3.381421781929238
 30
0.0
  0
SEQEND
  0
SOLID
 62
161
  8
0
 10
0.0
 20
3.0
 30
0.0
 11
0.8173323898483671
 21
3.0
 31
0.0
 13
0.8173323898483671
 23
3.381421781929238
 33
0.0
 12
0.0
 22
3.381421781929238
 32
0.0
  0
POLYLINE
 62
55
  8
0
 66
1
 10
0.0
 20
0.0
 30
0.0
 70
9
  0
VERTEX
  8
0
 10
40.0
 20
3.0
 30
0.0
  0
VERTEX
  8
0
 10
40.6453803002112
 20
3.50151421076032
 30
0.0
  0
VERTEX
  8
0
 10
40.41134033518971
 20
3.8026916841922125
 30
0.0
  0
VERTEX
  8
0
 10
39.76596003497852
 20
3.3011774734318924
 30
0.0
  0
SEQEND
  0
POLYLINE
 62
256
  8
0
 66
1
 10
0.0
 20
0.0
 30
0.0
 70
9
  0
VERTEX
  8
0
 10
0.0
 20
6.0
 30
0.0
  0
VERTEX
  8
0
 10
1.1127616553276247
 20
6.0
 30
0.0
  0
VERTEX
  8
0
 10
1.1127616553276247
 20
6.519288772486225
 30
0.0
  0
VERTEX
  8
0
 10
0.0
 20
6.519288772486225
 30
0.0
  0
SEQEND
  0
SOLID
 62
26
  8
0
 10
0.0
 20
6.0
 30
0.0
 11
1.1127616553276247
 21
6.0
 31
0.0
 13
1.1127616553276247
 23
6.519288772486225
 33
0.0
 12
0.0
 22
6.519288772486225
 32
0.0
  0
POLYLINE
 62
76
  8
0
 66
1
 10
0.0
 20
0.0
 30
0.0
 70
9
  0
VERTEX
  8
0
 10
40.0
 20
6.0
 30
0.0
  0
VERTEX
  8
0
 10
40.964993738588056
 20
6.554098895553236
 30
0.0
  0
VERTEX
  8
0
 10
40.70641425399655
 20
7.00442930689433
 30
0.0
  0
VERTEX
  8
0
 10
39.74142051540849
 20
6.450330411341095
 30
0.0
  0
SEQEND
  0
POLYLINE
 62
256
  8
0
 66
1
 10
0.0
 20
0.0
 30
0.0
 70
9
  0
VERTEX
  8
0
 10
0.0
 20
9.0
 30
0.0
  0
VERTEX
  8
0
 10
0.24882686061487957
 20
9.0
 30
0.0
  0
VERTEX
  8
0
 10
0.24882686061487957
 20
9.116119201620277
 30
0.0
  0
VERTEX
  8
0
 10
0.0
 20
9.116119201620277
 30
0.0
  0
SEQEND
  0
SOLID
 62
135
  8
0
 10
0.0
 20
9.0
 30
0.0
 11
0.24882686061487957
 21
9.0
 31
0.0
 13
0.24882686061487957
 23
9.116119201620277
 33
0.0
 12
0.0
 22
9.116119201620277
 32
0.0
  0
POLYLINE
 62
25
  8
0
 66
1
 10
0.0
 20
0.0
 30
0.0
 70
9
  0
VERTEX
  8
0
 10
40.0
 20
9.0
 30
0.0
  0
VERTEX
  8
0
 10
40.16567097100421
 20
9.185655422570896
 30
0.0
  0
VERTEX
  8
0
 10
40.07903177380446
 20
9.262968542372862
 30
0.0
  0
VERTEX
  8
0
 10
39.91336080280025
 20
9.077313119801966
 30
0.0
  0
SEQEND
  0
POLYLINE
 62
256
  8
0
 66
1
 10
0.0
 20
0.0
 30
0.0
 70
9
  0
VERTEX
  8
0
 10
0.0
 20
12.0
 30
0.0
  0
VERTEX
  8
0
 10
0.9535252686473311
 20
12.0
 30
0.0
  0
VERTEX
  8
0
 10
0.9535252686473311
 20
12.444978458702089
 30
0.0
  0
VERTEX
  8
0
 10
0.0
 20
12.444978458702089
 30
0.0
  0
SEQEND
  0
SOLID
 62
135
  8
0
 10
0.0
 20
12.0
 30
0.0
 11
0.9535252686473311
 21
12.0
 31
0.0
 13
0.9535252686473311
 23
12.444978458702089
 33
0.0
 12
0.0
 22
12.444978458702089
 32
0.0
  0
POLYLINE
 62
27
  8
0
 66
1
 10
0.0
 20
0.0
 30
0.0
 70
9
  0
VERTEX
  8
0
 10
40.0
 20
12.0
 30
0.0
  0
VERTEX
  8
0
 10
40.55314965549634
 20
12.776682622808856
 30
0.0
  0
VERTEX
  8
0
 10
40.19069776485221
 20
13.034819128707149
 30
0.0
  0
VERTEX
  8
0
 10
39.63754810935587
 20
12.258136505898293
 30
0.0
  0
SEQEND
  0
POLYLINE
 62
256
  8
0
 66
1
 10
0.0
 20
0.0
 30
0.0
 70
9
  0
VERTEX
  8
0
 10
0.0
 20
15.0
 30
0.0
  0
VERTEX
  8
0
 10
0.37421341192791
 20
15.0
 30
0.0
  0
VERTEX
  8
0
 10
0.37421341192791
 20
15.174632925566359
 30
0.0
  0
VERTEX
  8
0
 10
0.0
 20
15.174632925566359
 30
0.0
  0
SEQEND
  0
SOLID
 62
35
  8
0
 10
0.0
 20
15.0
 30
0.0
 11
0.37421341192791
 21
15.0
 31
0.0
 13
0.37421341192791
 23
15.174632925566359
 33
0.0
 12
0.0
 22
15.174632925566359
 32
0.0
  0
POLYLINE
 62
239
  8
0
 66
1
 10
0.0
 20
0.0
 30
0.0
 70
9
  0
VERTEX
  8
0
 10
40.0
 20
15.0
 30
0.0
  0
VERTEX
  8
0
 10
40.35683782135853
 20
15.112705132601945
 30
0.0
  0
VERTEX
  8
0
 10
40.30424209281096
 20
15.27922944923593
 30
0.0
  0
VERTEX
  8
0
 10
39.94740427145243
 20
15.166524316633982
 30
0.0
  0
SEQEND
  0
POLYLINE
 62
256
  8
0
 66
1
 10
0.0
 20
0.0
 30
0.0
 70
9
  0
VERTEX
  8
0
 10
0.0
 20
18.0
 30
0.0
  0
VERTEX
  8
0
 10
0.36872328244551406
 20
18.0
 30
0.0
  0
VERTEX
  8
0
 10
0.36872328244551406
 20
18.17207086514124
 30
0.0
  0
VERTEX
  8
0
 10
0.0
 20
18.17207086514124
 30
0.0
  0
SEQEND
  0
SOLID
 62
208
  8
0
 10
0.0
 20
18.0
 30
0.0
 11
0.36872328244551406
 21
18.0
 31
0.0
 13
0.36872328244551406
 23
18.17207086514124
 33
0.0
 12
0.0
 22
18.17207086514124
 32
0.0
  0
POLYLINE
 62
142
  8
0
 66
1
 10
0.0
 20
0.0
 30
0.0
 70
9
  0
VERTEX
  8
0
 10
40.0
 20
18.0
 30
0.0
  0
VERTEX
  8
0
 10
40.20992440027248
 20
18.30313133323303
 30
0.0
  0
VERTEX
  8
0
 10
40.0684631114304
 20
18.401096053360188
 30
0.0
  0
VERTEX
  8
0
 10
39.85853871115792
 20
18.097964720127155
 30
0.0
  0
SEQEND
  0
POLYLINE
 62
256
  8
0
 66
1
 10
0.0
 20
0.0
 30
0.0
 70
9
  0
VERTEX
  8
0
 10
0.0
 20
21.0
 30
0.0
  0
VERTEX
  8
0
 10
1.416929857763558
 20
21.0
 30
0.0
  0
VERTEX
  8
0
 10
1.416929857763558
 20
21.661233933622995
 30
0.0
  0
VERTEX
  8
0
 10
0.0
 20
21.661233933622995
 30
0.0
  0
SEQEND
  0
SOLID
 62
226
  8
0
 10
0.0
 20
21.0
 30
0.0
 11
1.416929857763558
 21
21.0
 31
0.0
 13
1.416929857763558
 23
21.661233933622995
 33
0.0
 12
0.0
 22
21.661233933622995
 32
0.0
  0
POLYLINE
 62
123
  8
0
 66
1
 10
0.0
 20
0.0
 30
0.0
 70
9
  0
VERTEX
  8
0
 10
40.0
 20
21.0
 30
0.0
  0
VERTEX
  8
0
 10
40.66984247503704
 20
22.248599727878435
 30
0.0
  0
VERTEX
  8
0
 10
40.087162602027114
 20
22.561192882895725
 30
0.0
  0
VERTEX
  8
0
 10
39.41732012699006
 20
21.31259315501729
 30
0.0
  0
SEQEND
  0
POLYLINE
 62
256
  8
0
 66
1
 10
0.0
 20
0.0
 30
0.0
 70
9
  0
VERTEX
  8
0
 10
0.0
 20
24.0
 30
0.0
  0
VERTEX
  8
0
 10
1.1999691446948142
 20
24.0
 30
0.0
  0
VERTEX
  8
0
 10
1.1999691446948142
 20
24.55998560085758
 30
0.0
  0
VERTEX
  8
0
 10
0.0
 20
24.55998560085758
 30
0.0
  0
SEQEND
  0
SOLID
 62
242
  8
0
 10
0.0
 20
24.0
 30
0.0
 11
1.1999691446948142
 21
24.0
 31
0.0
 13
1.1999691446948142
 23
24.55998560085758
 33
0.0
 12
0.0
 22
24.55998560085758
 32
0.0
  0
POLYLINE
 62
240
  8
0
 66
1
 10
0.0
 20
0.0
 30
0.0
 70
9
  0
VERTEX
  8
0
 10
40.0
 20
24.0
 30
0.0
  0
VERTEX
  8
0
 10
41.03004627074713
 20
24.615573414256605
 30
0.0
  0
VERTEX
  8
0
 10
40.74277867742738
 20
25.0962616739386
 30
0.0
  0
VERTEX
  8
0
 10
39.71273240668025
 20
24.480688259681994
 30
0.0
  0
SEQEND
  0
POLYLINE
 62
256
  8
0
 66
1
 10
0.0
 20
0.0
 30
0.0
 70
9
  0
VERTEX
  8
0
 10
0.0
 20
27.0
 30
0.0
  0
VERTEX
  8
0
 10
0.23722804117190666
 20
27.0
 30
0.0
  0
VERTEX
  8
0
 10
0.23722804117190666
 20
27.110706419213557
 30
0.0
  0
VERTEX
  8
0
 10
0.0
 20
27.110706419213557
 30
0.0
  0
SEQEND
  0
SOLID
 62
174
  8
0
 10
0.0
 20
27.0
 30
0.0
 11
0.23722804117190666
 21
27.0
 31
0.0
 13
0.23722804117190666
 23
27.110706419213557
 33
0.0
 12
0.0
 22
27.110706419213557
 32
0.0
  0
POLYLINE
 62
2
  8
0
 66
1
 10
0.0
 20
0.0
 30
0.0
 70
9
  0
VERTEX
  8
0
 10
40.0
 20
27.0
 30
0.0
  0
VERTEX
  8
0
 10
40.0427762820044
 20
27.233339523476285
 30
0.0
  0
VERTEX
  8
0
 10
39.93388450438213
 20
27.253301788411672
 30
0.0
  0
VERTEX
  8
0
 10
39.89110822237773
 20
27.019962264935383
 30
0.0
  0
SEQEND
  0
POLYLINE
 62
256
  8
0
 66
1
 10
0.0
 20
0.0
 30
0.0
 70
9
  0
VERTEX
  8
0
 10
3.0
 20
0.0
 30
0.0
  0
VERTEX
  8
0
 10
4.088912314688912
 20
0.0
 30
0.0
  0
VERTEX
  8
0
 10
4.088912314688912
 20
0.5081590801881591
 30
0.0
  0
VERTEX
  8
0
 10
3.0
 20
0.5081590801881591
 30
0.0
  0
SEQEND
  0
SOLID
 62
139
  8
0
 10
3.0
 20
0.0
 30
0.0
 11
4.088912314688912
 21
0.0
 31
0.0
 13
4.088912314688912
 23
0.5081590801881591
 33
0.0
 12
3.0
 22
0.5081590801881591
 32
0.0
  0
POLYLINE
 62
71
  8
0
 66
1
 10
0.0
 20
0.0
 30
0.0
 70
9
  0
VERTEX
  8
0
 10
43.0
 20
0.0
 30
0.0
  0
VERTEX
  8
0
 10
43.810437697086456
 20
0.7272693917815941
 30
0.0
  0
VERTEX
  8
0
 10
43.47104531425504
 20
1.1054736504219393
 30
0.0
  0
VERTEX
  8
0
 10
42.66060761716859
 20
0.3782042586403453
 30
0.0
  0
SEQEND
  0
POLYLINE
 62
256
  8
0
 66
1
 10
0.0
 20
0.0
 30
0.0
 70
9
  0
VERTEX
  8
0
 10
3.0
 20
3.0
 30
0.0
  0
VERTEX
  8
0
 10
4.031822292648387
 20
3.0
 30
0.0
  0
VERTEX
  8
0
 10
4.031822292648387
 20
3.481517069902581
 30
0.0
  0
VERTEX
  8
0
 10
3.0
 20
3.481517069902581
 30
0.0
  0
SEQEND
  0
SOLID
 62
169
  8
0
 10
3.0
 20
3.0
 30
0.0
 11
4.031822292648387
 21
3.0
 31
0.0
 13
4.031822292648387
 23
3.481517069902581
 33
0.0
 12
3.0
 22
3.481517069902581
 32
0.0
  0
POLYLINE
 62
152
  8
0
 66
1
 10
0.0
 20
0.0
 30
0.0
 70
9
  0
VERTEX
  8
0
 10
43.0
 20
3.0
 30
0.0
  0
VERTEX
  8
0
 10
43.31803176114742
 20
3.9815870020062656
 30
0.0
  0
VERTEX
  8
0
 10
42.859957826877825
 20
4.130001823875059
 30
0.0
  0
VERTEX
  8
0
 10
42.54192606573041
 20
3.1484148218687933
 30
0.0
  0
SEQEND
  0
POLYLINE
 62
256
  8
0
 66
1
 10
0.0
 20
0.0
 30
0.0
 70
9
  0
VERTEX
  8
0
 10
3.0
 20
6.0
 30
0.0
  0
VERTEX
  8
0
 10
3.0562923987073214
 20
6.0
 30
0.0
  0
VERTEX
  8
0
 10
3.0562923987073214
 20
6.026269786063416
 30
0.0
  0
VERTEX
  8
0
 10
3.0
 20
6.026269786063416
 30
0.0
  0
SEQEND
  0
SOLID
 62
241
  8
0
 10
3.0
 20
6.0
 30
0.0
 11
3.0562923987073214
 21
6.0
 31
0.0
 13
3.0562923987073214
 23
6.026269786063416
 33
0.0
 12
3.0
 22
6.026269786063416
 32
0.0
  0
POLYLINE
 62
172
  8
0
 66
1
 10
0.0
 20
0.0
 30
0.0
 70
9
  0
VERTEX
  8
0
 10
43.0
 20
6.0
 30
0.0
  0
VERTEX
  8
0
 10
43.041194416423735
 20
6.0383647521526225
 30
0.0
  0
VERTEX
  8
0
 10
43.02329086541918
 20
6.057588813150364
 30
0.0
  0
VERTEX
  8
0
 10
42.98209644899544
 20
6.019224060997741
 30
0.0
  0
SEQEND
  0
POLYLINE
 62
256
  8
0
 66
1
 10
0.0
 20
0.0
 30
0.0
 70
9
  0
VERTEX
  8
0
 10
3.0
 20
9.0
 30
0.0
  0
VERTEX
  8
0
 10
3.735495342792489
 20
9.0
 30
0.0
  0
VERTEX
  8
0
 10
3.735495342792489
 20
9.343231159969829
 30
0.0
  0
VERTEX
  8
0
 10
3.0
 20
9.343231159969829
 30
0.0
  0
SEQEND
  0
SOLID
 62
132
  8
0
 10
3.0
 20
9.0
 30
0.0
 11
3.735495342792489
 21
9.0
 31
0.0
 13
3.735495342792489
 23
9.343231159969829
 33
0.0
 12
3.0
 22
9.343231159969829
 32
0.0
  0
POLYLINE
 62
17
  8
0
 66
1
 10
0.0
 20
0.0
 30
0.0
 70
9
  0
VERTEX
  8
0
 10
43.0
 20
9.0
 30
0.0
  0
VERTEX
  8
0
 10
43.73481980118087
 20
9.031516012786385
 30
0.0
  0
VERTEX
  8
0
 10
43.72011232854722
 20
9.374431920004124
 30
0.0
  0
VERTEX
  8
0
 10
42.985292527366354
 20
9.342915907217739
 30
0.0
  0
SEQEND
  0
POLYLINE
 62
256
  8
0
 66
1
 10
0.0
 20
0.0
 30
0.0
 70
9
  0
VERTEX
  8
0
 10
3.0
 20
12.0
 30
0.0
  0
VERTEX
  8
0
 10
3.4678974737245793
 20
12.0
 30
0.0
  0
VERTEX
  8
0
 10
3.4678974737245793
 20
12.218352154404803
 30
0.0
  0
VERTEX
  8
0
 10
3.0
 20
12.218352154404803
 30
0.0
  0
SEQEND
  0
SOLID
 62
103
  8
0
 10
3.0
 20
12.0
 30
0.0
 11
3.4678974737245793
 21
12.0
 31
0.0
 13
3.4678974737245793
 23
12.218352154404803
 33
0.0
 12
3.0
 22
12.218352154404803
 32
0.0
  0
POLYLINE
 62
6
  8
0
 66
1
 10
0.0
 20
0.0
 30
0.0
 70
9
  0
VERTEX
  8
0
 10
43.0
 20
12.0
 30
0.0
  0
VERTEX
  8
0
 10
43.457227392466834
 20
12.099353698953902
 30
0.0
  0
VERTEX
  8
0
 10
43.41086233295501
 20
12.312726482105091
 30
0.0
  0
VERTEX
  8
0
 10
42.95363494048818
 20
12.21337278315119
 30
0.0
  0
SEQEND
  0
POLYLINE
 62
256
  8
0
 66
1
 10
0.0
 20
0.0
 30
0.0
 70
9
  0
VERTEX
  8
0
 10
3.0
 20
15.0
 30
0.0
  0
VERTEX
  8
0
 10
3.9368465297293724
 20
15.0
 30
0.0
  0
VERTEX
  8
0
 10
3.9368465297293724
 20
15.437195047207041
 30
0.0
  0
VERTEX
  8
0
 10
3.0
 20
15.437195047207041
 30
0.0
  0
SEQEND
  0
SOLID
 62
125
  8
0
 10
3.0
 20
15.0
 30
0.0
 11
3.9368465297293724
 21
15.0
 31
0.0
 13
3.9368465297293724
 23
15.437195047207041
 33
0.0
 12
3.0
 22
15.437195047207041
 32
0.0
  0
POLYLINE
 62
41
  8
0
 66
1
 10
0.0
 20
0.0
 30
0.0
 70
9
  0
VERTEX
  8
0
 10
43.0
 20
15.0
 30
0.0
  0
VERTEX
  8
0
 10
43.918053674055294
 20
15.186705307422008
 30
0.0
  0
VERTEX
  8
0
 10
43.83092453059169
 20
15.615130355314479
 30
0.0
  0
VERTEX
  8
0
 10
42.912870856536394
 20
15.42842504789247
 30
0.0
  0
SEQEND
  0
POLYLINE
 62
256
  8
0
 66
1
 10
0.0
 20
0.0
 30
0.0
 70
9
  0
VERTEX
  8
0
 10
3.0
 20
18.0
 30
0.0
  0
VERTEX
  8
0
 10
3.963576869137816
 20
18.0
 30
0.0
  0
VERTEX
  8
0
 10
3.963576869137816
 20
18.449669205597647
 30
0.0
  0
VERTEX
  8
0
 10
3.0
 20
18.449669205597647
 30
0.0
  0
SEQEND
  0
SOLID
 62
59
  8
0
 10
3.0
 20
18.0
 30
0.0
 11
3.963576869137816
 21
18.0
 31
0.0
 13
3.963576869137816
 23
18.449669205597647
 33
0.0
 12
3.0
 22
18.449669205597647
 32
0.0
  0
POLYLINE
 62
184
  8
0
 66
1
 10
0.0
 20
0.0
 30
0.0
 70
9
  0
VERTEX
  8
0
 10
43.0
 20
18.0
 30
0.0
  0
VERTEX
  8
0
 10
43.37428386782735
 20
18.887914392845186
 30
0.0
  0
VERTEX
  8
0
 10
42.95992381783293
 20
19.06258019783128
 30
0.0
  0
VERTEX
  8
0
 10
42.58563995000558
 20
18.1746658049861
 30
0.0
  0
SEQEND
  0
POLYLINE
 62
256
  8
0
 66
1
 10
0.0
 20
0.0
 30
0.0
 70
9
  0
VERTEX
  8
0
 10
3.0
 20
21.0
 30
0.0
  0
VERTEX
  8
0
 10
3.011988694733399
 20
21.0
 30
0.0
  0
VERTEX
  8
0
 10
3.011988694733399
 20
21.00559472420892
 30
0.0
  0
VERTEX
  8
0
 10
3.0
 20
21.00559472420892
 30
0.0
  0
SEQEND
  0
SOLID
 62
36
  8
0
 10
3.0
 20
21.0
 30
0.0
 11
3.011988694733399
 21
21.0
 31
0.0
 13
3.011988694733399
 23
21.00559472420892
 33
0.0
 12
3.0
 22
21.00559472420892
 32
0.0
  0
POLYLINE
 62
112
  8
0
 66
1
 10
0.0
 20
0.0
 30
0.0
 70
9
  0
VERTEX
  8
0
 10
43.0
 20
21.0
 30
0.0
  0
VERTEX
  8
0
 10
43.00480444074065
 20
21.01098390415928
 30
0.0
  0
VERTEX
  8
0
 10
42.999678618799656
 20
21.013225976504916
 30
0.0
  0
VERTEX
  8
0
 10
42.99487417805901
 20
21.002242072345638
 30
0.0
  0
SEQEND
  0
POLYLINE
 62
256
  8
0
 66
1
 10
0.0
 20
0.0
 30
0.0
 70
9
  0
VERTEX
  8
0
 10
3.0
 20
24.0
 30
0.0
  0
VERTEX
  8
0
 10
4.004884823831825
 20
24.0
 30
0.0
  0
VERTEX
  8
0
 10
4.004884823831825
 20
24.46894625112152
 30
0.0
  0
VERTEX
  8
0
 10
3.0
 20
24.46894625112152
 30
0.0
  0
SEQEND
  0
SOLID
 62
43
  8
0
 10
3.0
 20
24.0
 30
0.0
 11
4.004884823831825
 21
24.0
 31
0.0
 13
4.004884823831825
 23
24.46894625112152
 33
0.0
 12
3.0
 22
24.46894625112152
 32
0.0
  0
POLYLINE
 62
19
  8
0
 66
1
 10
0.0
 20
0.0
 30
0.0
 70
9
  0
VERTEX
  8
0
 10
43.0
 20
24.0
 30
0.0
  0
VERTEX
  8
0
 10
43.81958657057487
 20
24.58143904452732
 30
0.0
  0
VERTEX
  8
0
 10
43.54824834979546
 20
24.96391277746226
 30
0.0
  0
VERTEX
  8
0
 10
42.72866177922059
 20
24.38247373293494
 30
0.0
  0
SEQEND
  0
POLYLINE
 62
256
  8
0
 66
1
 10
0.0
 20
0.0
 30
0.0
 70
9
  0
VERTEX
  8
0
 10
3.0
 20
27.0
 30
0.0
  0
VERTEX
  8
0
 10
4.3097993819672755
 20
27.0
 30
0.0
  0
VERTEX
  8
0
 10
4.3097993819672755
 20
27.61123971158473
 30
0.0
  0
VERTEX
  8
0
 10
3.0
 20
27.61123971158473
 30
0.0
  0
SEQEND
  0
SOLID
 62
12
  8
0
 10
3.0
 20
27.0
 30
0.0
 11
4.3097993819672755
 21
27.0
 31
0.0
 13
4.3097993819672755
 23
27.61123971158473
 33
0.0
 12
3.0
 22
27.61123971158473
 32
0.0
  0
POLYLINE
 62
236
  8
0
 66
1
 10
0.0
 20
0.0
 30
0.0
 70
9
  0
VERTEX
  8
0
 10
43.0
 20
27.0
 30
0.0
  0
VERTEX
  8
0
 10
43.71314616157781
 20
28.098634139843053
 30
0.0
  0
VERTEX
  8
0
 10
43.200450229651054
 20
28.4314356819127
 30
0.0
  0
VERTEX
  8
0
 10
42.48730406807324
 20
27.332801542069646
 30
0.0
  0
SEQEND
  0
POLYLINE
 62
256
  8
0
 66
1
 10
0.0
 20
0.0
 30
0.0
 70
9
  0
VERTEX
  8
0
 10
6.0
 20
0.0
 30
0.0
  0
VERTEX
  8
0
 10
6.876061580919829
 20
0.0
 30
0.0
  0
VERTEX
  8
0
 10
6.876061580919829
 20
0.40882873776258677
 30
0.0
  0
VERTEX
  8
0
 10
6.0
 20
0.40882873776258677
 30
0.0
  0
SEQEND
  0
SOLID
 62
246
  8
0
 10
6.0
 20
0.0
 30
0.0
 11
6.876061580919829
 21
0.0
 31
0.0
 13
6.876061580919829
 23
0.40882873776258677
 33
0.0
 12
6.0
 22
0.40882873776258677
 32
0.0
  0
POLYLINE
 62
246
  8
0
 66
1
 10
0.0
 20
0.0
 30
0.0
 70
9
  0
VERTEX
  8
0
 10
46.0
 20
0.0
 30
0.0
  0
VERTEX
  8
0
 10
46.72185169445998
 20
0.4964010724897884
 30
0.0
  0
VERTEX
  8
0
 10
46.490197860631405
 20
0.8332651965711102
 30
0.0
  0
VERTEX
  8
0
 10
45.76834616617143
 20
0.3368641240813218
 30
0.0
  0
SEQEND
  0
POLYLINE
 62
256
  8
0
 66
1
 10
0.0
 20
0.0
 30
0.0
 70
9
  0
VERTEX
  8
0
 10
6.0
 20
3.0
 30
0.0
  0
VERTEX
  8
0
 10
7.161993895522184
 20
3.0
 30
0.0
  0
VERTEX
  8
0
 10
7.161993895522184
 20
3.542263817910353
 30
0.0
  0
VERTEX
  8
0
 10
6.0
 20
3.542263817910353
 30
0.0
  0
SEQEND
  0
SOLID
 62
214
  8
0
 10
6.0
 20
3.0
 30
0.0
 11
7.161993895522184
 21
3.0
 31
0.0
 13
7.161993895522184
 23
3.542263817910353
 33
0.0
 12
6.0
 22
3.542263817910353
 32
0.0
  0
POLYLINE
 62
51
  8
0
 66
1
 10
0.0
 20
0.0
 30
0.0
 70
9
  0
VERTEX
  8
0
 10
46.0
 20
3.0
 30
0.0
  0
VERTEX
  8
0
 10
47.13989760921347
 20
3.225528831283795
 30
0.0
  0
VERTEX
  8
0
 10
47.03465082128103
 20
3.757481048916748
 30
0.0
  0
VERTEX
  8
0
 10
45.89475321206756
 20
3.531952217632953
 30
0.0
  0
SEQEND
  0
POLYLINE
 62
256
  8
0
 66
1
 10
0.0
 20
0.0
 30
0.0
 70
9
  0
VERTEX
  8
0
 10
6.0
 20
6.0
 30
0.0
  0
VERTEX
  8
0
 10
6.079004624725591
 20
6.0
 30
0.0
  0
VERTEX
  8
0
 10
6.079004624725591
 20
6.036868824871942
 30
0.0
  0
VERTEX
  8
0
 10
6.0
 20
6.036868824871942
 30
0.0
  0
SEQEND
  0
SOLID
 62
12
  8
0
 10
6.0
 20
6.0
 30
0.0
 11
6.079004624725591
 21
6.0
 31
0.0
 13
6.079004624725591
 23
6.036868824871942
 33
0.0
 12
6.0
 22
6.036868824871942
 32
0.0
  0
POLYLINE
 62
221
  8
0
 66
1
 10
0.0
 20
0.0
 30
0.0
 70
9
  0
VERTEX
  8
0
 10
46.0
 20
6.0
 30
0.0
  0
VERTEX
  8
0
 10
46.00762685687712
 20
6.078635626672694
 30
0.0
  0
VERTEX
  8
0
 10
45.970930231096524
 20
6.082194826548681
 30
0.0
  0
VERTEX
  8
0
 10
45.96330337421941
 20
6.003559199875986
 30
0.0
  0
SEQEND
  0
POLYLINE
 62
256
  8
0
 66
1
 10
0.0
 20
0.0
 30
0.0
 70
9
  0
VERTEX
  8
0
 10
6.0
 20
9.0
 30
0.0
  0
VERTEX
  8
0
 10
6.63073315193969
 20
9.0
 30
0.0
  0
VERTEX
  8
0
 10
6.63073315193969
 20
9.294342137571855
 30
0.0
  0
VERTEX
  8
0
 10
6.0
 20
9.294342137571855
 30
0.0
  0
SEQEND
  0
SOLID
 62
61
  8
0
 10
6.0
 20
9.0
 30
0.0
 11
6.63073315193969
 21
9.0
 31
0.0
 13
6.63073315193969
 23
9.294342137571855
 33
0.0
 12
6.0
 22
9.294342137571855
 32
0.0
  0
POLYLINE
 62
159
  8
0
 66
1
 10
0.0
 20
0.0
 30
0.0
 70
9
  0
VERTEX
  8
0
 10
46.0
 20
9.0
 30
0.0
  0
VERTEX
  8
0
 10
46.542125862078926
 20
9.322372236119923
 30
0.0
  0
VERTEX
  8
0
 10
46.39168548522296
 20
9.575364305090087
 30
0.0
  0
VERTEX
  8
0
 10
45.84955962314404
 20
9.252992068970165
 30
0.0
  0
SEQEND
  0
POLYLINE
 62
256
  8
0
 66
1
 10
0.0
 20
0.0
 30
0.0
 70
9
  0
VERTEX
  8
0
 10
6.0
 20
12.0
 30
0.0
  0
VERTEX
  8
0
 10
6.702383726077557
 20
12.0
 30
0.0
  0
VERTEX
  8
0
 10
6.702383726077557
 20
12.327779072169527
 30
0.0
  0
VERTEX
  8
0
 10
6.0
 20
12.327779072169527
 30
0.0
  0
SEQEND
  0
SOLID
 62
34
  8
0
 10
6.0
 20
12.0
 30
0.0
 11
6.702383726077557
 21
12.0
 31
0.0
 13
6.702383726077557
 23
12.327779072169527
 33
0.0
 12
6.0
 22
12.327779072169527
 32
0.0
  0
POLYLINE
 62
131
  8
0
 66
1
 10
0.0
 20
0.0
 30
0.0
 70
9
  0
VERTEX
  8
0
 10
46.0
 20
12.0
 30
0.0
  0
VERTEX
  8
0
 10
46.70234849827965
 20
12.007034601830828
 30
0.0
  0
VERTEX
  8
0
 10
46.69906568409193
 20
12.334797234361329
 30
0.0
  0
VERTEX
  8
0
 10
45.99671718581228
 20
12.3277626325305
 30
0.0
  0
SEQEND
  0
POLYLINE
 62
256
  8
0
 66
1
 10
0.0
 20
0.0
 30
0.0
 70
9
  0
VERTEX
  8
0
 10
6.0
 20
15.0
 30
0.0
  0
VERTEX
  8
0
 10
7.181659519727697
 20
15.0
 30
0.0
  0
VERTEX
  8
0
 10
7.181659519727697
 20
15.551441109206259
 30
0.0
  0
VERTEX
  8
0
 10
6.0
 20
15.551441109206259
 30
0.0
  0
SEQEND
  0
SOLID
 62
222
  8
0
 10
6.0
 20
15.0
 30
0.0
 11
7.181659519727697
 21
15.0
 31
0.0
 13
7.181659519727697
 23
15.551441109206259
 33
0.0
 12
6.0
 22
15.551441109206259
 32
0.0
  0
POLYLINE
 62
228
  8
0
 66
1
 10
0.0
 20
0.0
 30
0.0
 70
9
  0
VERTEX
  8
0
 10
46.0
 20
15.0
 30
0.0
  0
VERTEX
  8
0
 10
46.324437565293366
 20
16.136247986484292
 30
0.0
  0
VERTEX
  8
0
 10
45.79418850493403
 20
16.287652183621194
 30
0.0
  0
VERTEX
  8
0
 10
45.46975093964066
 20
15.151404197136902
 30
0.0
  0
SEQEND
  0
POLYLINE
 62
256
  8
0
 66
1
 10
0.0
 20
0.0
 30
0.0
 70
9
  0
VERTEX
  8
0
 10
6.0
 20
18.0
 30
0.0
  0
VERTEX
  8
0
 10
6.49375636044451
 20
18.0
 30
0.0
  0
VERTEX
  8
0
 10
6.49375636044451
 20
18.230419634874103
 30
0.0
  0
VERTEX
  8
0
 10
6.0
 20
18.230419634874103
 30
0.0
  0
SEQEND
  0
SOLID
 62
146
  8
0
 10
6.0
 20
18.0
 30
0.0
 11
6.49375636044451
 21
18.0
 31
0.0
 13
6.49375636044451
 23
18.230419634874103
 33
0.0
 12
6.0
 22
18.230419634874103
 32
0.0
  0
POLYLINE
 62
29
  8
0
 66
1
 10
0.0
 20
0.0
 30
0.0
 70
9
  0
VERTEX
  8
0
 10
46.0
 20
18.0
 30
0.0
  0
VERTEX
  8
0
 10
46.38755445126997
 20
18.30593608937201
 30
0.0
  0
VERTEX
  8
0
 10
46.2447842762297
 20
18.486794833298
 30
0.0
  0
VERTEX
  8
0
 10
45.85722982495973
 20
18.180858743925988
 30
0.0
  0
SEQEND
  0
POLYLINE
 62
256
  8
0
 66
1
 10
0.0
 20
0.0
 30
0.0
 70
9
  0
VERTEX
  8
0
 10
6.0
 20
21.0
 30
0.0
  0
VERTEX
  8
0
 10
7.1967177368777895
 20
21.0
 30
0.0
  0
VERTEX
  8
0
 10
7.1967177368777895
 20
21.558468277209634
 30
0.0
  0
VERTEX
  8
0
 10
6.0
 20
21.558468277209634
 30
0.0
  0
SEQEND
  0
SOLID
 62
6
  8
0
 10
6.0
 20
21.0
 30
0.0
 11
7.1967177368777895
 21
21.0
 31
0.0
 13
7.1967177368777895
 23
21.558468277209634
 33
0.0
 12
6.0
 22
21.558468277209634
 32
0.0
  0
POLYLINE
 62
64
  8
0
 66
1
 10
0.0
 20
0.0
 30
0.0
 70
9
  0
VERTEX
  8
0
 10
46.0
 20
21.0
 30
0.0
  0
VERTEX
  8
0
 10
47.14067111311952
 20
21.361943025147017
 30
0.0
  0
VERTEX
  8
0
 10
46.97176436805091
 20
21.89425621126946
 30
0.0
  0
VERTEX
  8
0
 10
45.83109325493139
 20
21.532313186122444
 30
0.0
  0
SEQEND
  0
POLYLINE
 62
256
  8
0
 66
1
 10
0.0
 20
0.0
 30
0.0
 70
9
  0
VERTEX
  8
0
 10
6.0
 20
24.0
 30
0.0
  0
VERTEX
  8
0
 10
6.574425520689629
 20
24.0
 30
0.0
  0
VERTEX
  8
0
 10
6.574425520689629
 20
24.268065242988495
 30
0.0
  0
VERTEX
  8
0
 10
6.0
 20
24.268065242988495
 30
0.0
  0
SEQEND
  0
SOLID
 62
112
  8
0
 10
6.0
 20
24.0
 30
0.0
 11
6.574425520689629
 21
24.0
 31
0.0
 13
6.574425520689629
 23
24.268065242988495
 33
0.0
 12
6.0
 22
24.268065242988495
 32
0.0
  0
POLYLINE
 62
70
  8
0
 66
1
 10
0.0
 20
0.0
 30
0.0
 70
9
  0
VERTEX
  8
0
 10
46.0
 20
24.0
 30
0.0
  0
VERTEX
  8
0
 10
46.06003482717601
 20
24.571279702374852
 30
0.0
  0
VERTEX
  8
0
 10
45.79343763273442
 20
24.59929595505699
 30
0.0
  0
VERTEX
  8
0
 10
45.733402805558406
 20
24.02801625268214
 30
0.0
  0
SEQEND
  0
POLYLINE
 62
256
  8
0
 66
1
 10
0.0
 20
0.0
 30
0.0
 70
9
  0
VERTEX
  8
0
 10
6.0
 20
27.0
 30
0.0
  0
VERTEX
  8
0
 10
6.481650542097515
 20
27.0
 30
0.0
  0
VERTEX
  8
0
 10
6.481650542097515
 20
27.22477025297884
 30
0.0
  0
VERTEX
  8
0
 10
6.0
 20
27.22477025297884
 30
0.0
  0
SEQEND
  0
SOLID
 62
100
  8
0
 10
6.0
 20
27.0
 30
0.0
 11
6.481650542097515
 21
27.0
 31
0.0
 13
6.481650542097515
 23
27.22477025297884
 33
0.0
 12
6.0
 22
27.22477025297884
 32
0.0
  0
POLYLINE
 62
33
  8
0
 66
1
 10
0.0
 20
0.0
 30
0.0
 70
9
  0
VERTEX
  8
0
 10
46.0
 20
27.0
 30
0.0
  0
VERTEX
  8
0
 10
46.43927496948795
 20
27.19754681947374
 30
0.0
  0
VERTEX
  8
0
 10
46.34708645373354
 20
27.402541805234783
 30
0.0
  0
VERTEX
  8
0
 10
45.907811484245585
 20
27.204994985761044
 30
0.0
  0
SEQEND
  0
POLYLINE
 62
256
  8
0
 66
1
 10
0.0
 20
0.0
 30
0.0
 70
9
  0
VERTEX
  8
0
 10
9.0
 20
0.0
 30
0.0
  0
VERTEX
  8
0
 10
9.524297952998554
 20
0.0
 30
0.0
  0
VERTEX
  8
0
 10
9.524297952998554
 20
0.24467237806599132
 30
0.0
  0
VERTEX
  8
0
 10
9.0
 20
0.24467237806599132
 30
0.0
  0
SEQEND
  0
SOLID
 62
31
  8
0
 10
9.0
 20
0.0
 30
0.0
 11
9.524297952998554
 21
0.0
 31
0.0
 13
9.524297952998554
 23
0.24467237806599132
 33
0.0
 12
9.0
 22
0.24467237806599132
 32
0.0
  0
POLYLINE
 62
10
  8
0
 66
1
 10
0.0
 20
0.0
 30
0.0
 70
9
  0
VERTEX
  8
0
 10
49.0
 20
0.0
 30
0.0
  0
VERTEX
  8
0
 10
49.299520971466315
 20
0.4303202658141339
 30
0.0
  0
VERTEX
  8
0
 10
49.09870484741972
 20
0.5700967191650815
 30
0.0
  0
VERTEX
  8
0
 10
48.7991838759534
 20
0.1397764533509476
 30
0.0
  0
SEQEND
  0
POLYLINE
 62
256
  8
0
 66
1
 10
0.0
 20
0.0
 30
0.0
 70
9
  0
VERTEX
  8
0
 10
9.0
 20
3.0
 30
0.0
  0
VERTEX
  8
0
 10
10.123461979158565
 20
3.0
 30
0.0
  0
VERTEX
  8
0
 10
10.123461979158565
 20
3.5242822569406638
 30
0.0
  0
VERTEX
  8
0
 10
9.0
 20
3.5242822569406638
 30
0.0
  0
SEQEND
  0
SOLID
 62
46
  8
0
 10
9.0
 20
3.0
 30
0.0
 11
10.123461979158565
 21
3.0
 31
0.0
 13
10.123461979158565
 23
3.5242822569406638
 33
0.0
 12
9.0
 22
3.5242822569406638
 32
0.0
  0
POLYLINE
 62
234
  8
0
 66
1
 10
0.0
 20
0.0
 30
0.0
 70
9
  0
VERTEX
  8
0
 10
49.0
 20
3.0
 30
0.0
  0
VERTEX
  8
0
 10
49.78182407322783
 20
3.8067948544309873
 30
0.0
  0
VERTEX
  8
0
 10
49.40531980782671
 20
4.171646088603977
 30
0.0
  0
VERTEX
  8
0
 10
48.623495734598876
 20
3.3648512341729893
 30
0.0
  0
SEQEND
  0
POLYLINE
 62
256
  8
0
 66
1
 10
0.0
 20
0.0
 30
0.0
 70
9
  0
VERTEX
  8
0
 10
9.0
 20
6.0
 30
0.0
  0
VERTEX
  8
0
 10
10.16827919361385
 20
6.0
 30
0.0
  0
VERTEX
  8
0
 10
10.16827919361385
 20
6.5451969570197965
 30
0.0
  0
VERTEX
  8
0
 10
9.0
 20
6.5451969570197965
 30
0.0
  0
SEQEND
  0
SOLID
 62
13
  8
0
 10
9.0
 20
6.0
 30
0.0
 11
10.16827919361385
 21
6.0
 31
0.0
 13
10.16827919361385
 23
6.5451969570197965
 33
0.0
 12
9.0
 22
6.5451969570197965
 32
0.0
  0
POLYLINE
 62
150
  8
0
 66
1
 10
0.0
 20
0.0
 30
0.0
 70
9
  0
VERTEX
  8
0
 10
49.0
 20
6.0
 30
0.0
  0
VERTEX
  8
0
 10
50.05137090308167
 20
6.509407006610894
 30
0.0
  0
VERTEX
  8
0
 10
49.813647633329914
 20
7.000046761382338
 30
0.0
  0
VERTEX
  8
0
 10
48.76227673024825
 20
6.490639754771443
 30
0.0
  0
SEQEND
  0
POLYLINE
 62
256
  8
0
 66
1
 10
0.0
 20
0.0
 30
0.0
 70
9
  0
VERTEX
  8
0
 10
9.0
 20
9.0
 30
0.0
  0
VERTEX
  8
0
 10
9.430389695411353
 20
9.0
 30
0.0
  0
VERTEX
  8
0
 10
9.430389695411353
 20
9.200848524525298
 30
0.0
  0
VERTEX
  8
0
 10
9.0
 20
9.200848524525298
 30
0.0
  0
SEQEND
  0
SOLID
 62
233
  8
0
 10
9.0
 20
9.0
 30
0.0
 11
9.430389695411353
 21
9.0
 31
0.0
 13
9.430389695411353
 23
9.200848524525298
 33
0.0
 12
9.0
 22
9.200848524525298
 32
0.0
  0
POLYLINE
 62
54
  8
0
 66
1
 10
0.0
 20
0.0
 30
0.0
 70
9
  0
VERTEX
  8
0
 10
49.0
 20
9.0
 30
0.0
  0
VERTEX
  8
0
 10
49.109174534921024
 20
9.416312635937292
 30
0.0
  0
VERTEX
  8
0
 10
48.91489530481695
 20
9.467260752233768
 30
0.0
  0
VERTEX
  8
0
 10
48.80572076989593
 20
9.050948116296478
 30
0.0
  0
SEQEND
  0
POLYLINE
 62
256
  8
0
 66
1
 10
0.0
 20
0.0
 30
0.0
 70
9
  0
VERTEX
  8
0
 10
9.0
 20
12.0
 30
0.0
  0
VERTEX
  8
0
 10
10.337538834185652
 20
12.0
 30
0.0
  0
VERTEX
  8
0
 10
10.337538834185652
 20
12.624184789286637
 30
0.0
  0
VERTEX
  8
0
 10
9.0
 20
12.624184789286637
 30
0.0
  0
SEQEND
  0
SOLID
 62
203
  8
0
 10
9.0
 20
12.0
 30
0.0
 11
10.337538834185652
 21
12.0
 31
0.0
 13
10.337538834185652
 23
12.624184789286637
 33
0.0
 12
9.0
 22
12.624184789286637
 32
0.0
  0
POLYLINE
 62
79
  8
0
 66
1
 10
0.0
 20
0.0
 30
0.0
 70
9
  0
VERTEX
  8
0
 10
49.0
 20
12.0
 30
0.0
  0
VERTEX
  8
0
 10
49.90885694209101
 20
12.981320127057268
 30
0.0
  0
VERTEX
  8
0
 10
49.45090754946428
 20
13.405453366699739
 30
0.0
  0
VERTEX
  8
0
 10
48.54205060737328
 20
12.424133239642472
 30
0.0
  0
SEQEND
  0
POLYLINE
 62
256
  8
0
 66
1
 10
0.0
 20
0.0
 30
0.0
 70
9
  0
VERTEX
  8
0
 10
9.0
 20
15.0
 30
0.0
  0
VERTEX
  8
0
 10
10.145612207975624
 20
15.0
 30
0.0
  0
VERTEX
  8
0
 10
10.145612207975624
 20
15.534619030388624
 30
0.0
  0
VERTEX
  8
0
 10
9.0
 20
15.534619030388624
 30
0.0
  0
SEQEND
  0
SOLID
 62
46
  8
0
 10
9.0
 20
15.0
 30
0.0
 11
10.145612207975624
 21
15.0
 31
0.0
 13
10.145612207975624
 23
15.534619030388624
 33
0.0
 12
9.0
 22
15.534619030388624
 32
0.0
  0
POLYLINE
 62
142
  8
0
 66
1
 10
0.0
 20
0.0
 30
0.0
 70
9
  0
VERTEX
  8
0
 10
49.0
 20
15.0
 30
0.0
  0
VERTEX
  8
0
 10
49.95953683189316
 20
15.625872510423024
 30
0.0
  0
VERTEX
  8
0
 10
49.66746299369575
 20
16.073656365306498
 30
0.0
  0
VERTEX
  8
0
 10
48.70792616180259
 20
15.447783854883475
 30
0.0
  0
SEQEND
  0
POLYLINE
 62
256
  8
0
 66
1
 10
0.0
 20
0.0
 30
0.0
 70
9
  0
VERTEX
  8
0
 10
9.0
 20
18.0
 30
0.0
  0
VERTEX
  8
0
 10
10.455082484413913
 20
18.0
 30
0.0
  0
VERTEX
  8
0
 10
10.455082484413913
 20
18.67903849272649
 30
0.0
  0
VERTEX
  8
0
 10
9.0
 20
18.67903849272649
 30
0.0
  0
SEQEND
  0
SOLID
 62
188
  8
0
 10
9.0
 20
18.0
 30
0.0
 11
10.455082484413913
 21
18.0
 31
0.0
 13
10.455082484413913
 23
18.67903849272649
 33
0.0
 12
9.0
 22
18.67903849272649
 32
0.0
  0
POLYLINE
 62
40
  8
0
 66
1
 10
0.0
 20
0.0
 30
0.0
 70
9
  0
VERTEX
  8
0
 10
49.0
 20
18.0
 30
0.0
  0
VERTEX
  8
0
 10
50.12001964795539
 20
18.92888159882843
 30
0.0
  0
VERTEX
  8
0
 10
49.686541568502115
 20
19.45155743454094
 30
0.0
  0
VERTEX
  8
0
 10
48.566521920546734
 20
18.522675835712512
 30
0.0
  0
SEQEND
  0
POLYLINE
 62
256
  8
0
 66
1
 10
0.0
 20
0.0
 30
0.0
 70
9
  0
VERTEX
  8
0
 10
9.0
 20
21.0
 30
0.0
  0
VERTEX
  8
0
 10
9.482166083380479
 20
21.0
 30
0.0
  0
VERTEX
  8
0
 10
9.482166083380479
 20
21.22501083891089
 30
0.0
  0
VERTEX
  8
0
 10
9.0
 20
21.22501083891089
 30
0.0
  0
SEQEND
  0
SOLID
 62
245
  8
0
 10
9.0
 20
21.0
 30
0.0
 11
9.482166083380479
 21
21.0
 31
0.0
 13
9.482166083380479
 23
21.22501083891089
 33
0.0
 12
9.0
 22
21.22501083891089
 32
0.0
  0
POLYLINE
 62
151
  8
0
 66
1
 10
0.0
 20
0.0
 30
0.0
 70
9
  0
VERTEX
  8
0
 10
49.0
 20
21.0
 30
0.0
  0
VERTEX
  8
0
 10
49.18317877602349
 20
21.44601532258097
 30
0.0
  0
VERTEX
  8
0
 10
48.97503829215237
 20
21.531498751391933
 30
0.0
  0
VERTEX
  8
0
 10
48.79185951612888
 20
21.08548342881096
 30
0.0
  0
SEQEND
  0
POLYLINE
 62
256
  8
0
 66
1
 10
0.0
 20
0.0
 30
0.0
 70
9
  0
VERTEX
  8
0
 10
9.0
 20
24.0
 30
0.0
  0
VERTEX
  8
0
 10
9.312894548753016
 20
24.0
 30
0.0
  0
VERTEX
  8
0
 10
9.312894548753016
 20
24.146017456084742
 30
0.0
  0
VERTEX
  8
0
 10
9.0
 20
24.146017456084742
 30
0.0
  0
SEQEND
  0
SOLID
 62
82
  8
0
 10
9.0
 20
24.0
 30
0.0
 11
9.312894548753016
 21
24.0
 31
0.0
 13
9.312894548753016
 23
24.146017456084742
 33
0.0
 12
9.0
 22
24.146017456084742
 32
0.0
  0
POLYLINE
 62
48
  8
0
 66
1
 10
0.0
 20
0.0
 30
0.0
 70
9
  0
VERTEX
  8
0
 10
49.0
 20
24.0
 30
0.0
  0
VERTEX
  8
0
 10
49.23889412974488
 20
24.20207076337954
 30
0.0
  0
VERTEX
  8
0
 10
49.14459444016776
 20
24.31355469059382
 30
0.0
  0
VERTEX
  8
0
 10
48.90570031042288
 20
24.111483927214277
 30
0.0
  0
SEQEND
  0
POLYLINE
 62
256
  8
0
 66
1
 10
0.0
 20
0.0
 30
0.0
 70
9
  0
VERTEX
  8
0
 10
9.0
 20
27.0
 30
0.0
  0
VERTEX
  8
0
 10
9.893885080776913
 20
27.0
 30
0.0
  0
VERTEX
  8
0
 10
9.893885080776913
 20
27.417146371029226
 30
0.0
  0
VERTEX
  8
0
 10
9.0
 20
27.417146371029226
 30
0.0
  0
SEQEND
  0
SOLID
 62
232
  8
0
 10
9.0
 20
27.0
 30
0.0
 11
9.893885080776913
 21
27.0
 31
0.0
 13
9.893885080776913
 23
27.417146371029226
 33
0.0
 12
9.0
 22
27.417146371029226
 32
0.0
  0
POLYLINE
 62
60
  8
0
 66
1
 10
0.0
 20
0.0
 30
0.0
 70
9
  0
VERTEX
  8
0
 10
49.0
 20
27.0
 30
0.0
  0
VERTEX
  8
0
 10
49.89294373327739
 20
27.041012520480756
 30
0.0
  0
VERTEX
  8
0
 10
49.87380455705304
 20
27.457719596010204
 30
0.0
  0
VERTEX
  8
0
 10
48.98086082377565
 20
27.416707075529448
 30
0.0
  0
SEQEND
  0
POLYLINE
 62
256
  8
0
 66
1
 10
0.0
 20
0.0
 30
0.0
 70
9
  0
VERTEX
  8
0
 10
12.0
 20
0.0
 30
0.0
  0
VERTEX
  8
0
 10
12.803594870648995
 20
0.0
 30
0.0
  0
VERTEX
  8
0
 10
12.803594870648995
 20
0.37501093963619786
 30
0.0
  0
VERTEX
  8
0
 10
12.0
 20
0.37501093963619786
 30
0.0
  0
SEQEND
  0
SOLID
 62
213
  8
0
 10
12.0
 20
0.0
 30
0.0
 11
12.803594870648995
 21
0.0
 31
0.0
 13
12.803594870648995
 23
0.37501093963619786
 33
0.0
 12
12.0
 22
0.37501093963619786
 32
0.0
  0
POLYLINE
 62
166
  8
0
 66
1
 10
0.0
 20
0.0
 30
0.0
 70
9
  0
VERTEX
  8
0
 10
52.0
 20
0.0
 30
0.0
  0
VERTEX
  8
0
 10
52.777342569136636
 20
0.2037234555504746
 30
0.0
  0
VERTEX
  8
0
 10
52.68227162321308
 20
0.5664833211475726
 30
0.0
  0
VERTEX
  8
0
 10
51.90492905407645
 20
0.36275986559709794
 30
0.0
  0
SEQEND
  0
POLYLINE
 62
256
  8
0
 66
1
 10
0.0
 20
0.0
 30
0.0
 70
9
  0
VERTEX
  8
0
 10
12.0
 20
3.0
 30
0.0
  0
VERTEX
  8
0
 10
12.983759177292201
 20
3.0
 30
0.0
  0
VERTEX
  8
0
 10
12.983759177292201
 20
3.459087616069694
 30
0.0
  0
VERTEX
  8
0
 10
12.0
 20
3.459087616069694
 30
0.0
  0
SEQEND
  0
SOLID
 62
99
  8
0
 10
12.0
 20
3.0
 30
0.0
 11
12.983759177292201
 21
3.0
 31
0.0
 13
12.983759177292201
 23
3.459087616069694
 33
0.0
 12
12.0
 22
3.459087616069694
 32
0.0
  0
POLYLINE
 62
145
  8
0
 66
1
 10
0.0
 20
0.0
 30
0.0
 70
9
  0
VERTEX
  8
0
 10
52.0
 20
3.0
 30
0.0
  0
VERTEX
  8
0
 10
52.983245364075614
 20
3.03179108256162
 30
0.0
  0
VERTEX
  8
0
 10
52.96840952554686
 20
3.4906389191302405
 30
0.0
  0
VERTEX
  8
0
 10
51.985164161471246
 20
3.4588478365686206
 30
0.0
  0
SEQEND
  0
POLYLINE
 62
256
  8
0
 66
1
 10
0.0
 20
0.0
 30
0.0
 70
9
  0
VERTEX
  8
0
 10
12.0
 20
6.0
 30
0.0
  0
VERTEX
  8
0
 10
13.083781618800495
 20
6.0
 30
0.0
  0
VERTEX
  8
0
 10
13.083781618800495
 20
6.505764755440231
 30
0.0
  0
VERTEX
  8
0
 10
12.0
 20
6.505764755440231
 30
0.0
  0
SEQEND
  0
SOLID
 62
67
  8
0
 10
12.0
 20
6.0
 30
0.0
 11
13.083781618800495
 21
6.0
 31
0.0
 13
13.083781618800495
 23
6.505764755440231
 33
0.0
 12
12.0
 22
6.505764755440231
 32
0.0
  0
POLYLINE
 62
1
  8
0
 66
1
 10
0.0
 20
0.0
 30
0.0
 70
9
  0
VERTEX
  8
0
 10
52.0
 20
6.0
 30
0.0
  0
VERTEX
  8
0
 10
52.725769848641185
 20
6.804885534752101
 30
0.0
  0
VERTEX
  8
0
 10
52.350156599090205
 20
7.143578130784654
 30
0.0
  0
VERTEX
  8
0
 10
51.62438675044902
 20
6.338692596032552
 30
0.0
  0
SEQEND
  0
POLYLINE
 62
256
  8
0
 66
1
 10
0.0
 20
0.0
 30
0.0
 70
9
  0
VERTEX
  8
0
 10
12.0
 20
9.0
 30
0.0
  0
VERTEX
  8
0
 10
12.836356133084674
 20
9.0
 30
0.0
  0
VERTEX
  8
0
 10
12.836356133084674
 20
9.390299528772848
 30
0.0
  0
VERTEX
  8
0
 10
12.0
 20
9.390299528772848
 30
0.0
  0
SEQEND
  0
SOLID
 62
233
  8
0
 10
12.0
 20
9.0
 30
0.0
 11
12.836356133084674
 21
9.0
 31
0.0
 13
12.836356133084674
 23
9.390299528772848
 33
0.0
 12
12.0
 22
9.390299528772848
 32
0.0
  0
POLYLINE
 62
51
  8
0
 66
1
 10
0.0
 20
0.0
 30
0.0
 70
9
  0
VERTEX
  8
0
 10
52.0
 20
9.0
 30
0.0
  0
VERTEX
  8
0
 10
52.20774355951775
 20
9.810144551809888
 30
0.0
  0
VERTEX
  8
0
 10
51.829676102006474
 20
9.907091546251506
 30
0.0
  0
VERTEX
  8
0
 10
51.62193254248872
 20
9.096946994441618
 30
0.0
  0
SEQEND
  0
POLYLINE
 62
256
  8
0
 66
1
 10
0.0
 20
0.0
 30
0.0
 70
9
  0
VERTEX
  8
0
 10
12.0
 20
12.0
 30
0.0
  0
VERTEX
  8
0
 10
12.735979399162769
 20
12.0
 30
0.0
  0
VERTEX
  8
0
 10
12.735979399162769
 20
12.343457052942625
 30
0.0
  0
VERTEX
  8
0
 10
12.0
 20
12.343457052942625
 30
0.0
  0
SEQEND
  0
SOLID
 62
203
  8
0
 10
12.0
 20
12.0
 30
0.0
 11
12.735979399162769
 21
12.0
 31
0.0
 13
12.735979399162769
 23
12.343457052942625
 33
0.0
 12
12.0
 22
12.343457052942625
 32
0.0
  0
POLYLINE
 62
169
  8
0
 66
1
 10
0.0
 20
0.0
 30
0.0
 70
9
  0
VERTEX
  8
0
 10
52.0
 20
12.0
 30
0.0
  0
VERTEX
  8
0
 10
52.06376976629844
 20
12.733211492611943
 30
0.0
  0
VERTEX
  8
0
 10
51.72160440307953
 20
12.762970716884547
 30
0.0
  0
VERTEX
  8
0
 10
51.6578346367811
 20
12.029759224272604
 30
0.0
  0
SEQEND
  0
POLYLINE
 62
256
  8
0
 66
1
 10
0.0
 20
0.0
 30
0.0
 70
9
  0
VERTEX
  8
0
 10
12.0
 20
15.0
 30
0.0
  0
VERTEX
  8
0
 10
12.5281938212351
 20
15.0
 30
0.0
  0
VERTEX
  8
0
 10
12.5281938212351
 20
15.246490449909713
 30
0.0
  0
VERTEX
  8
0
 10
12.0
 20
15.246490449909713
 30
0.0
  0
SEQEND
  0
SOLID
 62
7
  8
0
 10
12.0
 20
15.0
 30
0.0
 11
12.5281938212351
 21
15.0
 31
0.0
 13
12.5281938212351
 23
15.246490449909713
 33
0.0
 12
12.0
 22
15.246490449909713
 32
0.0
  0
POLYLINE
 62
158
  8
0
 66
1
 10
0.0
 20
0.0
 30
0.0
 70
9
  0
VERTEX
  8
0
 10
52.0
 20
15.0
 30
0.0
  0
VERTEX
  8
0
 10
52.112602974722144
 20
15.516051628109688
 30
0.0
  0
VERTEX
  8
0
 10
51.87177888160429
 20
15.568599682980022
 30
0.0
  0
VERTEX
  8
0
 10
51.75917590688215
 20
15.052548054870334
 30
0.0
  0
SEQEND
  0
POLYLINE
 62
256
  8
0
 66
1
 10
0.0
 20
0.0
 30
0.0
 70
9
  0
VERTEX
  8
0
 10
12.0
 20
18.0
 30
0.0
  0
VERTEX
  8
0
 10
12.995396635797132
 20
18.0
 30
0.0
  0
VERTEX
  8
0
 10
12.995396635797132
 20
18.464518430038662
 30
0.0
  0
VERTEX
  8
0
 10
12.0
 20
18.464518430038662
 30
0.0
  0
SEQEND
  0
SOLID
 62
154
  8
0
 10
12.0
 20
18.0
 30
0.0
 11
12.995396635797132
 21
18.0
 31
0.0
 13
12.995396635797132
 23
18.464518430038662
 33
0.0
 12
12.0
 22
18.464518430038662
 32
0.0
  0
POLYLINE
 62
187
  8
0
 66
1
 10
0.0
 20
0.0
 30
0.0
 70
9
  0
VERTEX
  8
0
 10
52.0
 20
18.0
 30
0.0
  0
VERTEX
  8
0
 10
52.920825596282725
 20
18.378014131728968
 30
0.0
  0
VERTEX
  8
0
 10
52.744419001475876
 20
18.807732743327573
 30
0.0
  0
VERTEX
  8
0
 10
51.82359340519315
 20
18.429718611598606
 30
0.0
  0
SEQEND
  0
POLYLINE
 62
256
  8
0
 66
1
 10
0.0
 20
0.0
 30
0.0
 70
9
  0
VERTEX
  8
0
 10
12.0
 20
21.0
 30
0.0
  0
VERTEX
  8
0
 10
13.171296302424935
 20
21.0
 30
0.0
  0
VERTEX
  8
0
 10
13.171296302424935
 20
21.546604941131637
 30
0.0
  0
VERTEX
  8
0
 10
12.0
 20
21.546604941131637
 30
0.0
  0
SEQEND
  0
SOLID
 62
220
  8
0
 10
12.0
 20
21.0
 30
0.0
 11
13.171296302424935
 21
21.0
 31
0.0
 13
13.171296302424935
 23
21.546604941131637
 33
0.0
 12
12.0
 22
21.546604941131637
 32
0.0
  0
POLYLINE
 62
229
  8
0
 66
1
 10
0.0
 20
0.0
 30
0.0
 70
9
  0
VERTEX
  8
0
 10
52.0
 20
21.0
 30
0.0
  0
VERTEX
  8
0
 10
53.170745636660016
 20
21.03591214719076
 30
0.0
  0
VERTEX
  8
0
 10
53.15398663463766
 20
21.582260110965436
 30
0.0
  0
VERTEX
  8
0
 10
51.983240997977646
 20
21.546347963774675
 30
0.0
  0
SEQEND
  0
POLYLINE
 62
256
  8
0
 66
1
 10
0.0
 20
0.0
 30
0.0
 70
9
  0
VERTEX
  8
0
 10
12.0
 20
24.0
 30
0.0
  0
VERTEX
  8
0
 10
12.436544337730822
 20
24.0
 30
0.0
  0
VERTEX
  8
0
 10
12.436544337730822
 20
24.20372069094105
 30
0.0
  0
VERTEX
  8
0
 10
12.0
 20
24.20372069094105
 30
0.0
  0
SEQEND
  0
SOLID
 62
39
  8
0
 10
12.0
 20
24.0
 30
0.0
 11
12.436544337730822
 21
24.0
 31
0.0
 13
12.436544337730822
 23
24.20372069094105
 33
0.0
 12
12.0
 22
24.20372069094105
 32
0.0
  0
POLYLINE
 62
177
  8
0
 66
1
 10
0.0
 20
0.0
 30
0.0
 70
9
  0
VERTEX
  8
0
 10
52.0
 20
24.0
 30
0.0
  0
VERTEX
  8
0
 10
52.11571947549803
 20
24.42092750182817
 30
0.0
  0
VERTEX
  8
0
 10
51.91928664131155
 20
24.47492992372725
 30
0.0
  0
VERTEX
  8
0
 10
51.80356716581352
 20
24.05400242189908
 30
0.0
  0
SEQEND
  0
POLYLINE
 62
256
  8
0
 66
1
 10
0.0
 20
0.0
 30
0.0
 70
9
  0
VERTEX
  8
0
 10
12.0
 20
27.0
 30
0.0
  0
VERTEX
  8
0
 10
12.292256754893298
 20
27.0
 30
0.0
  0
VERTEX
  8
0
 10
12.292256754893298
 20
27.13638648561687
 30
0.0
  0
VERTEX
  8
0
 10
12.0
 20
27.13638648561687
 30
0.0
  0
SEQEND
  0
SOLID
 62
217
  8
0
 10
12.0
 20
27.0
 30
0.0
 11
12.292256754893298
 21
27.0
 31
0.0
 13
12.292256754893298
 23
27.13638648561687
 33
0.0
 12
12.0
 22
27.13638648561687
 32
0.0
  0
POLYLINE
 62
94
  8
0
 66
1
 10
0.0
 20
0.0
 30
0.0
 70
9
  0
VERTEX
  8
0
 10
52.0
 20
27.0
 30
0.0
  0
VERTEX
  8
0
 10
52.16983718539997
 20
27.237843102141255
 30
0.0
  0
VERTEX
  8
0
 10
52.05884373773405
 20
27.31710045532791
 30
0.0
  0
VERTEX
  8
0
 10
51.88900655233408
 20
27.079257353186655
 30
0.0
  0
SEQEND
  0
POLYLINE
 62
256
  8
0
 66
1
 10
0.0
 20
0.0
 30
0.0
 70
9
  0
VERTEX
  8
0
 10
15.0
 20
0.0
 30
0.0
  0
VERTEX
  8
0
 10
15.955200030210532
 20
0.0
 30
0.0
  0
VERTEX
  8
0
 10
15.955200030210532
 20
0.4457600140982486
 30
0.0
  0
VERTEX
  8
0
 10
15.0
 20
0.4457600140982486
 30
0.0
  0
SEQEND
  0
SOLID
 62
187
  8
0
 10
15.0
 20
0.0
 30
0.0
 11
15.955200030210532
 21
0.0
 31
0.0
 13
15.955200030210532
 23
0.4457600140982486
 33
0.0
 12
15.0
 22
0.4457600140982486
 32
0.0
  0
POLYLINE
 62
192
  8
0
 66
1
 10
0.0
 20
0.0
 30
0.0
 70
9
  0
VERTEX
  8
0
 10
55.0
 20
0.0
 30
0.0
  0
VERTEX
  8
0
 10
55.695744591009614
 20
0.6544819033365796
 30
0.0
  0
VERTEX
  8
0
 10
55.390319702785874
 20
0.979162712474398
 30
0.0
  0
VERTEX
  8
0
 10
54.69457511177626
 20
0.32468080913781844
 30
0.0
  0
SEQEND
  0
POLYLINE
 62
256
  8
0
 66
1
 10
0.0
 20
0.0
 30
0.0
 70
9
  0
VERTEX
  8
0
 10
15.0
 20
3.0
 30
0.0
  0
VERTEX
  8
0
 10
16.226437799639864
 20
3.0
 30
0.0
  0
VERTEX
  8
0
 10
16.226437799639864
 20
3.572337639831937
 30
0.0
  0
VERTEX
  8
0
 10
15.0
 20
3.572337639831937
 30
0.0
  0
SEQEND
  0
SOLID
 62
165
  8
0
 10
15.0
 20
3.0
 30
0.0
 11
16.226437799639864
 21
3.0
 31
0.0
 13
16.226437799639864
 23
3.572337639831937
 33
0.0
 12
15.0
 22
3.572337639831937
 32
0.0
  0
POLYLINE
 62
164
  8
0
 66
1
 10
0.0
 20
0.0
 30
0.0
 70
9
  0
VERTEX
  8
0
 10
55.0
 20
3.0
 30
0.0
  0
VERTEX
  8
0
 10
56.21232524606631
 20
3.185518662499893
 30
0.0
  0
VERTEX
  8
0
 10
56.12574987023302
 20
3.7512704439975013
 30
0.0
  0
VERTEX
  8
0
 10
54.913424624166716
 20
3.5657517814976085
 30
0.0
  0
SEQEND
  0
POLYLINE
 62
256
  8
0
 66
1
 10
0.0
 20
0.0
 30
0.0
 70
9
  0
VERTEX
  8
0
 10
15.0
 20
6.0
 30
0.0
  0
VERTEX
  8
0
 10
15.991933637629893
 20
6.0
 30
0.0
  0
VERTEX
  8
0
 10
15.991933637629893
 20
6.462902364227284
 30
0.0
  0
VERTEX
  8
0
 10
15.0
 20
6.462902364227284
 30
0.0
  0
SEQEND
  0
SOLID
 62
131
  8
0
 10
15.0
 20
6.0
 30
0.0
 11
15.991933637629893
 21
6.0
 31
0.0
 13
15.991933637629893
 23
6.462902364227284
 33
0.0
 12
15.0
 22
6.462902364227284
 32
0.0
  0
POLYLINE
 62
24
  8
0
 66
1
 10
0.0
 20
0.0
 30
0.0
 70
9
  0
VERTEX
  8
0
 10
55.0
 20
6.0
 30
0.0
  0
VERTEX
  8
0
 10
55.98905565126906
 20
6.075506689467882
 30
0.0
  0
VERTEX
  8
0
 10
55.95381919618405
 20
6.537065993393445
 30
0.0
  0
VERTEX
  8
0
 10
54.96476354491499
 20
6.461559303925563
 30
0.0
  0
SEQEND
  0
POLYLINE
 62
256
  8
0
 66
1
 10
0.0
 20
0.0
 30
0.0
 70
9
  0
VERTEX
  8
0
 10
15.0
 20
9.0
 30
0.0
  0
VERTEX
  8
0
 10
15.201910593394196
 20
9.0
 30
0.0
  0
VERTEX
  8
0
 10
15.201910593394196
 20
9.094224943583958
 30
0.0
  0
VERTEX
  8
0
 10
15.0
 20
9.094224943583958
 30
0.0
  0
SEQEND
  0
SOLID
 62
38
  8
0
 10
15.0
 20
9.0
 30
0.0
 11
15.201910593394196
 21
9.0
 31
0.0
 13
15.201910593394196
 23
9.094224943583958
 33
0.0
 12
15.0
 22
9.094224943583958
 32
0.0
  0
POLYLINE
 62
49
  8
0
 66
1
 10
0.0
 20
0.0
 30
0.0
 70
9
  0
VERTEX
  8
0
 10
55.0
 20
9.0
 30
0.0
  0
VERTEX
  8
0
 10
55.113370505236745
 20
9.167077874858288
 30
0.0
  0
VERTEX
  8
0
 10
55.035400830302876
 20
9.219984110635435
 30
0.0
  0
VERTEX
  8
0
 10
54.92203032506613
 20
9.052906235777147
 30
0.0
  0
SEQEND
  0
POLYLINE
 62
256
  8
0
 66
1
 10
0.0
 20
0.0
 30
0.0
 70
9
  0
VERTEX
  8
0
 10
15.0
 20
12.0
 30
0.0
  0
VERTEX
  8
0
 10
15.18343097596778
 20
12.0
 30
0.0
  0
VERTEX
  8
0
 10
15.18343097596778
 20
12.085601122118298
 30
0.0
  0
VERTEX
  8
0
 10
15.0
 20
12.085601122118298
 30
0.0
  0
SEQEND
  0
SOLID
 62
157
  8
0
 10
15.0
 20
12.0
 30
0.0
 11
15.18343097596778
 21
12.0
 31
0.0
 13
15.18343097596778
 23
12.085601122118298
 33
0.0
 12
15.0
 22
12.085601122118298
 32
0.0
  0
POLYLINE
 62
133
  8
0
 66
1
 10
0.0
 20
0.0
 30
0.0
 70
9
  0
VERTEX
  8
0
 10
55.0
 20
12.0
 30
0.0
  0
VERTEX
  8
0
 10
55.181786474366326
 20
12.024507155729584
 30
0.0
  0
VERTEX
  8
0
 10
55.17034980169252
 20
12.109340843767203
 30
0.0
  0
VERTEX
  8
0
 10
54.9885633273262
 20
12.084833688037618
 30
0.0
  0
SEQEND
  0
POLYLINE
 62
256
  8
0
 66
1
 10
0.0
 20
0.0
 30
0.0
 70
9
  0
VERTEX
  8
0
 10
15.0
 20
15.0
 30
0.0
  0
VERTEX
  8
0
 10
15.752147651775989
 20
15.0
 30
0.0
  0
VERTEX
  8
0
 10
15.752147651775989
 20
15.351002237495461
 30
0.0
  0
VERTEX
  8
0
 10
15.0
 20
15.351002237495461
 30
0.0
  0
SEQEND
  0
SOLID
 62
197
  8
0
 10
15.0
 20
15.0
 30
0.0
 11
15.752147651775989
 21
15.0
 31
0.0
 13
15.752147651775989
 23
15.351002237495461
 33
0.0
 12
15.0
 22
15.351002237495461
 32
0.0
  0
POLYLINE
 62
208
  8
0
 66
1
 10
0.0
 20
0.0
 30
0.0
 70
9
  0
VERTEX
  8
0
 10
55.0
 20
15.0
 30
0.0
  0
VERTEX
  8
0
 10
55.744086043327016
 20
15.109827365433567
 30
0.0
  0
VERTEX
  8
0
 10
55.692833272791354
 20
15.457067518986175
 30
0.0
  0
VERTEX
  8
0
 10
54.94874722946434
 20
15.347240153552608
 30
0.0
  0
SEQEND
  0
POLYLINE
 62
256
  8
0
 66
1
 10
0.0
 20
0.0
 30
0.0
 70
9
  0
VERTEX
  8
0
 10
15.0
 20
18.0
 30
0.0
  0
VERTEX
  8
0
 10
15.413478096924129
 20
18.0
 30
0.0
  0
VERTEX
  8
0
 10
15.413478096924129
 20
18.19295644523126
 30
0.0
  0
VERTEX
  8
0
 10
15.0
 20
18.19295644523126
 30
0.0
  0
SEQEND
  0
SOLID
 62
159
  8
0
 10
15.0
 20
18.0
 30
0.0
 11
15.413478096924129
 21
18.0
 31
0.0
 13
15.413478096924129
 23
18.19295644523126
 33
0.0
 12
15.0
 22
18.19295644523126
 32
0.0
  0
POLYLINE
 62
78
  8
0
 66
1
 10
0.0
 20
0.0
 30
0.0
 70
9
  0
VERTEX
  8
0
 10
55.0
 20
18.0
 30
0.0
  0
VERTEX
  8
0
 10
55.37570134377928
 20
18.172663362988335
 30
0.0
  0
VERTEX
  8
0
 10
55.29512510771806
 20
18.347990656752
 30
0.0
  0
VERTEX
  8
0
 10
54.919423763938774
 20
18.175327293763665
 30
0.0
  0
SEQEND
  0
POLYLINE
 62
256
  8
0
 66
1
 10
0.0
 20
0.0
 30
0.0
 70
9
  0
VERTEX
  8
0
 10
15.0
 20
21.0
 30
0.0
  0
VERTEX
  8
0
 10
15.61728853527764
 20
21.0
 30
0.0
  0
VERTEX
  8
0
 10
15.61728853527764
 20
21.288067983129565
 30
0.0
  0
VERTEX
  8
0
 10
15.0
 20
21.288067983129565
 30
0.0
  0
SEQEND
  0
SOLID
 62
205
  8
0
 10
15.0
 20
21.0
 30
0.0
 11
15.61728853527764
 21
21.0
 31
0.0
 13
15.61728853527764
 23
21.288067983129565
 33
0.0
 12
15.0
 22
21.288067983129565
 32
0.0
  0
POLYLINE
 62
176
  8
0
 66
1
 10
0.0
 20
0.0
 30
0.0
 70
9
  0
VERTEX
  8
0
 10
55.0
 20
21.0
 30
0.0
  0
VERTEX
  8
0
 10
55.59570967027664
 20
21.161787281713078
 30
0.0
  0
VERTEX
  8
0
 10
55.52020893881054
 20
21.43978512784218
 30
0.0
  0
VERTEX
  8
0
 10
54.9244992685339
 20
21.2779978461291
 30
0.0
  0
SEQEND
  0
POLYLINE
 62
256
  8
0
 66
1
 10
0.0
 20
0.0
 30
0.0
 70
9
  0
VERTEX
  8
0
 10
15.0
 20
24.0
 30
0.0
  0
VERTEX
  8
0
 10
15.049226371081042
 20
24.0
 30
0.0
  0
VERTEX
  8
0
 10
15.049226371081042
 20
24.022972306504485
 30
0.0
  0
VERTEX
  8
0
 10
15.0
 20
24.022972306504485
 30
0.0
  0
SEQEND
  0
SOLID
 62
75
  8
0
 10
15.0
 20
24.0
 30
0.0
 11
15.049226371081042
 21
24.0
 31
0.0
 13
15.049226371081042
 23
24.022972306504485
 33
0.0
 12
15.0
 22
24.022972306504485
 32
0.0
  0
POLYLINE
 62
196
  8
0
 66
1
 10
0.0
 20
0.0
 30
0.0
 70
9
  0
VERTEX
  8
0
 10
55.0
 20
24.0
 30
0.0
  0
VERTEX
  8
0
 10
55.04314677412593
 20
24.023697921688083
 30
0.0
  0
VERTEX
  8
0
 10
55.032087744004826
 20
24.04383308294685
 30
0.0
  0
VERTEX
  8
0
 10
54.9889409698789
 20
24.020135161258768
 30
0.0
  0
SEQEND
  0
POLYLINE
 62
256
  8
0
 66
1
 10
0.0
 20
0.0
 30
0.0
 70
9
  0
VERTEX
  8
0
 10
15.0
 20
27.0
 30
0.0
  0
VERTEX
  8
0
 10
15.379875467545903
 20
27.0
 30
0.0
  0
VERTEX
  8
0
 10
15.379875467545903
 20
27.177275218188086
 30
0.0
  0
VERTEX
  8
0
 10
15.0
 20
27.177275218188086
 30
0.0
  0
SEQEND
  0
SOLID
 62
229
  8
0
 10
15.0
 20
27.0
 30
0.0
 11
15.379875467545903
 21
27.0
 31
0.0
 13
15.379875467545903
 23
27.177275218188086
 33
0.0
 12
15.0
 22
27.177275218188086
 32
0.0
  0
POLYLINE
 62
49
  8
0
 66
1
 10
0.0
 20
0.0
 30
0.0
 70
9
  0
VERTEX
  8
0
 10
55.0
 20
27.0
 30
0.0
  0
VERTEX
  8
0
 10
55.09152344484601
 20
27.36868527213158
 30
0.0
  0
VERTEX
  8
0
 10
54.91947031785128
 20
27.411396213059717
 30
0.0
  0
VERTEX
  8
0
 10
54.82794687300526
 20
27.04271094092814
 30
0.0
  0
SEQEND
  0
POLYLINE
 62
256
  8
0
 66
1
 10
0.0
 20
0.0
 30
0.0
 70
9
  0
VERTEX
  8
0
 10
18.0
 20
0.0
 30
0.0
  0
VERTEX
  8
0
 10
19.323995875926066
 20
0.0
 30
0.0
  0
VERTEX
  8
0
 10
19.323995875926066
 20
0.6178647420988302
 30
0.0
  0
VERTEX
  8
0
 10
18.0
 20
0.6178647420988302
 30
0.0
  0
SEQEND
  0
SOLID
 62
91
  8
0
 10
18.0
 20
0.0
 30
0.0
 11
19.323995875926066
 21
0.0
 31
0.0
 13
19.323995875926066
 23
0.6178647420988302
 33
0.0
 12
18.0
 22
0.6178647420988302
 32
0.0
  0
POLYLINE
 62
3
  8
0
 66
1
 10
0.0
 20
0.0
 30
0.0
 70
9
  0
VERTEX
  8
0
 10
58.0
 20
0.0
 30
0.0
  0
VERTEX
  8
0
 10
58.767395569138486
 20
1.0789203492083403
 30
0.0
  0
VERTEX
  8
0
 10
58.263899406174595
 20
1.437038281472967
 30
0.0
  0
VERTEX
  8
0
 10
57.49650383703611
 20
0.3581179322646267
 30
0.0
  0
SEQEND
  0
POLYLINE
 62
256
  8
0
 66
1
 10
0.0
 20
0.0
 30
0.0
 70
9
  0
VERTEX
  8
0
 10
18.0
 20
3.0
 30
0.0
  0
VERTEX
  8
0
 10
18.815311982831737
 20
3.0
 30
0.0
  0
VERTEX
  8
0
 10
18.815311982831737
 20
3.380478925321477
 30
0.0
  0
VERTEX
  8
0
 10
18.0
 20
3.380478925321477
 30
0.0
  0
SEQEND
  0
SOLID
 62
244
  8
0
 10
18.0
 20
3.0
 30
0.0
 11
18.815311982831737
 21
3.0
 31
0.0
 13
18.815311982831737
 23
3.380478925321477
 33
0.0
 12
18.0
 22
3.380478925321477
 32
0.0
  0
POLYLINE
 62
247
  8
0
 66
1
 10
0.0
 20
0.0
 30
0.0
 70
9
  0
VERTEX
  8
0
 10
58.0
 20
3.0
 30
0.0
  0
VERTEX
  8
0
 10
58.59328175927095
 20
3.559240899313868
 30
0.0
  0
VERTEX
  8
0
 10
58.33230267292448
 20
3.8361057203069775
 30
0.0
  0
VERTEX
  8
0
 10
57.739020913653526
 20
3.27686482099311
 30
0.0
  0
SEQEND
  0
POLYLINE
 62
256
  8
0
 66
1
 10
0.0
 20
0.0
 30
0.0
 70
9
  0
VERTEX
  8
0
 10
18.0
 20
6.0
 30
0.0
  0
VERTEX
  8
0
 10
18.93057602199221
 20
6.0
 30
0.0
  0
VERTEX
  8
0
 10
18.93057602199221
 20
6.43426881026303
 30
0.0
  0
VERTEX
  8
0
 10
18.0
 20
6.43426881026303
 30
0.0
  0
SEQEND
  0
SOLID
 62
76
  8
0
 10
18.0
 20
6.0
 30
0.0
 11
18.93057602199221
 21
6.0
 31
0.0
 13
18.93057602199221
 23
6.43426881026303
 33
0.0
 12
18.0
 22
6.43426881026303
 32
0.0
  0
POLYLINE
 62
203
  8
0
 66
1
 10
0.0
 20
0.0
 30
0.0
 70
9
  0
VERTEX
  8
0
 10
58.0
 20
6.0
 30
0.0
  0
VERTEX
  8
0
 10
58.00929636952379
 20
6.930529585892097
 30
0.0
  0
VERTEX
  8
0
 10
57.57504922944081
 20
6.934867891669866
 30
0.0
  0
VERTEX
  8
0
 10
57.56575285991702
 20
6.004338305777768
 30
0.0
  0
SEQEND
  0
POLYLINE
 62
256
  8
0
 66
1
 10
0.0
 20
0.0
 30
0.0
 70
9
  0
VERTEX
  8
0
 10
18.0
 20
9.0
 30
0.0
  0
VERTEX
  8
0
 10
18.038416116023246
 20
9.0
 30
0.0
  0
VERTEX
  8
0
 10
18.038416116023246
 20
9.017927520810847
 30
0.0
  0
VERTEX
  8
0
 10
18.0
 20
9.017927520810847
 30
0.0
  0
SEQEND
  0
SOLID
 62
173
  8
0
 10
18.0
 20
9.0
 30
0.0
 11
18.038416116023246
 21
9.0
 31
0.0
 13
18.038416116023246
 23
9.017927520810847
 33
0.0
 12
18.0
 22
9.017927520810847
 32
0.0
  0
POLYLINE
 62
90
  8
0
 66
1
 10
0.0
 20
0.0
 30
0.0
 70
9
  0
VERTEX
  8
0
 10
58.0
 20
9.0
 30
0.0
  0
VERTEX
  8
0
 10
58.03795575104486
 20
9.005929496853167
 30
0.0
  0
VERTEX
  8
0
 10
58.03518865251338
 20
9.023642180674104
 30
0.0
  0
VERTEX
  8
0
 10
57.99723290146852
 20
9.017712683820937
 30
0.0
  0
SEQEND
  0
POLYLINE
 62
256
  8
0
 66
1
 10
0.0
 20
0.0
 30
0.0
 70
9
  0
VERTEX
  8
0
 10
18.0
 20
12.0
 30
0.0
  0
VERTEX
  8
0
 10
18.102460042133572
 20
12.0
 30
0.0
  0
VERTEX
  8
0
 10
18.102460042133572
 20
12.047814686329001
 30
0.0
  0
VERTEX
  8
0
 10
18.0
 20
12.047814686329001
 30
0.0
  0
SEQEND
  0
SOLID
 62
41
  8
0
 10
18.0
 20
12.0
 30
0.0
 11
18.102460042133572
 21
12.0
 31
0.0
 13
18.102460042133572
 23
12.047814686329001
 33
0.0
 12
18.0
 22
12.047814686329001
 32
0.0
  0
POLYLINE
 62
106
  8
0
 66
1
 10
0.0
 20
0.0
 30
0.0
 70
9
  0
VERTEX
  8
0
 10
58.0
 20
12.0
 30
0.0
  0
VERTEX
  8
0
 10
58.058608151828025
 20
12.084042517652179
 30
0.0
  0
VERTEX
  8
0
 10
58.01938831025701
 20
12.111392988505257
 30
0.0
  0
VERTEX
  8
0
 10
57.96078015842898
 20
12.027350470853078
 30
0.0
  0
SEQEND
  0
POLYLINE
 62
256
  8
0
 66
1
 10
0.0
 20
0.0
 30
0.0
 70
9
  0
VERTEX
  8
0
 10
18.0
 20
15.0
 30
0.0
  0
VERTEX
  8
0
 10
19.42835463880686
 20
15.0
 30
0.0
  0
VERTEX
  8
0
 10
19.42835463880686
 20
15.666565498109868
 30
0.0
  0
VERTEX
  8
0
 10
18.0
 20
15.666565498109868
 30
0.0
  0
SEQEND
  0
SOLID
 62
238
  8
0
 10
18.0
 20
15.0
 30
0.0
 11
19.42835463880686
 21
15.0
 31
0.0
 13
19.42835463880686
 23
15.666565498109868
 33
0.0
 12
18.0
 22
15.666565498109868
 32
0.0
  0
POLYLINE
 62
84
  8
0
 66
1
 10
0.0
 20
0.0
 30
0.0
 70
9
  0
VERTEX
  8
0
 10
58.0
 20
15.0
 30
0.0
  0
VERTEX
  8
0
 10
59.260774275944534
 20
15.671301124174242
 30
0.0
  0
VERTEX
  8
0
 10
58.94750041799656
 20
16.25966245294836
 30
0.0
  0
VERTEX
  8
0
 10
57.686726142052024
 20
15.588361328774118
 30
0.0
  0
SEQEND
  0
POLYLINE
 62
256
  8
0
 66
1
 10
0.0
 20
0.0
 30
0.0
 70
9
  0
VERTEX
  8
0
 10
18.0
 20
18.0
 30
0.0
  0
VERTEX
  8
0
 10
18.75202893302907
 20
18.0
 30
0.0
  0
VERTEX
  8
0
 10
18.75202893302907
 20
18.350946835413566
 30
0.0
  0
VERTEX
  8
0
 10
18.0
 20
18.350946835413566
 30
0.0
  0
SEQEND
  0
SOLID
 62
68
  8
0
 10
18.0
 20
18.0
 30
0.0
 11
18.75202893302907
 21
18.0
 31
0.0
 13
18.75202893302907
 23
18.350946835413566
 33
0.0
 12
18.0
 22
18.350946835413566
 32
0.0
  0
POLYLINE
 62
187
  8
0
 66
1
 10
0.0
 20
0.0
 30
0.0
 70
9
  0
VERTEX
  8
0
 10
58.0
 20
18.0
 30
0.0
  0
VERTEX
  8
0
 10
58.685809478792414
 20
18.30856583561911
 30
0.0
  0
VERTEX
  8
0
 10
58.54181208883683
 20
18.62861025905557
 30
0.0
  0
VERTEX
  8
0
 10
57.85600261004441
 20
18.32004442343646
 30
0.0
  0
SEQEND
  0
POLYLINE
 62
256
  8
0
 66
1
 10
0.0
 20
0.0
 30
0.0
 70
9
  0
VERTEX
  8
0
 10
18.0
 20
21.0
 30
0.0
  0
VERTEX
  8
0
 10
19.424569029554817
 20
21.0
 30
0.0
  0
VERTEX
  8
0
 10
19.424569029554817
 20
21.664798880458914
 30
0.0
  0
VERTEX
  8
0
 10
18.0
 20
21.664798880458914
 30
0.0
  0
SEQEND
  0
SOLID
 62
225
  8
0
 10
18.0
 20
21.0
 30
0.0
 11
19.424569029554817
 21
21.0
 31
0.0
 13
19.424569029554817
 23
21.664798880458914
 33
0.0
 12
18.0
 22
21.664798880458914
 32
0.0
  0
POLYLINE
 62
135
  8
0
 66
1
 10
0.0
 20
0.0
 30
0.0
 70
9
  0
VERTEX
  8
0
 10
58.0
 20
21.0
 30
0.0
  0
VERTEX
  8
0
 10
58.6146703142296
 20
22.285137084038755
 30
0.0
  0
VERTEX
  8
0
 10
58.01493967501152
 20
22.571983230679237
 30
0.0
  0
VERTEX
  8
0
 10
57.40026936078191
 20
21.28684614664048
 30
0.0
  0
SEQEND
  0
POLYLINE
 62
256
  8
0
 66
1
 10
0.0
 20
0.0
 30
0.0
 70
9
  0
VERTEX
  8
0
 10
18.0
 20
24.0
 30
0.0
  0
VERTEX
  8
0
 10
19.247082399289702
 20
24.0
 30
0.0
  0
VERTEX
  8
0
 10
19.247082399289702
 20
24.581971786335195
 30
0.0
  0
VERTEX
  8
0
 10
18.0
 20
24.581971786335195
 30
0.0
  0
SEQEND
  0
SOLID
 62
81
  8
0
 10
18.0
 20
24.0
 30
0.0
 11
19.247082399289702
 21
24.0
 31
0.0
 13
19.247082399289702
 23
24.581971786335195
 33
0.0
 12
18.0
 22
24.581971786335195
 32
0.0
  0
POLYLINE
 62
172
  8
0
 66
1
 10
0.0
 20
0.0
 30
0.0
 70
9
  0
VERTEX
  8
0
 10
58.0
 20
24.0
 30
0.0
  0
VERTEX
  8
0
 10
58.48776972921096
 20
25.147734813397083
 30
0.0
  0
VERTEX
  8
0
 10
57.952160149625655
 20
25.375360687028863
 30
0.0
  0
VERTEX
  8
0
 10
57.464390420414695
 20
24.22762587363178
 30
0.0
  0
SEQEND
  0
POLYLINE
 62
256
  8
0
 66
1
 10
0.0
 20
0.0
 30
0.0
 70
9
  0
VERTEX
  8
0
 10
18.0
 20
27.0
 30
0.0
  0
VERTEX
  8
0
 10
18.49556756561911
 20
27.0
 30
0.0
  0
VERTEX
  8
0
 10
18.49556756561911
 20
27.231264863955584
 30
0.0
  0
VERTEX
  8
0
 10
18.0
 20
27.231264863955584
 30
0.0
  0
SEQEND
  0
SOLID
 62
173
  8
0
 10
18.0
 20
27.0
 30
0.0
 11
18.49556756561911
 21
27.0
 31
0.0
 13
18.49556756561911
 23
27.231264863955584
 33
0.0
 12
18.0
 22
27.231264863955584
 32
0.0
  0
POLYLINE
 62
237
  8
0
 66
1
 10
0.0
 20
0.0
 30
0.0
 70
9
  0
VERTEX
  8
0
 10
58.0
 20
27.0
 30
0.0
  0
VERTEX
  8
0
 10
58.29177812412225
 20
27.40056552320107
 30
0.0
  0
VERTEX
  8
0
 10
58.10484754662842
 20
27.536728647791456
 30
0.0
  0
VERTEX
  8
0
 10
57.81306942250617
 20
27.136163124590386
 30
0.0
  0
SEQEND
  0
POLYLINE
 62
256
  8
0
 66
1
 10
0.0
 20
0.0
 30
0.0
 70
9
  0
VERTEX
  8
0
 10
21.0
 20
0.0
 30
0.0
  0
VERTEX
  8
0
 10
21.394535203204143
 20
0.0
 30
0.0
  0
VERTEX
  8
0
 10
21.394535203204143
 20
0.18411642816193305
 30
0.0
  0
VERTEX
  8
0
 10
21.0
 20
0.18411642816193305
 30
0.0
  0
SEQEND
  0
SOLID
 62
11
  8
0
 10
21.0
 20
0.0
 30
0.0
 11
21.394535203204143
 21
0.0
 31
0.0
 13
21.394535203204143
 23
0.18411642816193305
 33
0.0
 12
21.0
 22
0.18411642816193305
 32
0.0
  0
POLYLINE
 62
30
  8
0
 66
1
 10
0.0
 20
0.0
 30
0.0
 70
9
  0
VERTEX
  8
0
 10
61.0
 20
0.0
 30
0.0
  0
VERTEX
  8
0
 10
61.05129447124401
 20
0.391186533238468
 30
0.0
  0
VERTEX
  8
0
 10
60.86874075573272
 20
0.4151239531523402
 30
0.0
  0
VERTEX
  8
0
 10
60.81744628448872
 20
0.02393741991387218
 30
0.0
  0
SEQEND
  0
POLYLINE
 62
256
  8
0
 66
1
 10
0.0
 20
0.0
 30
0.0
 70
9
  0
VERTEX
  8
0
 10
21.0
 20
3.0
 30
0.0
  0
VERTEX
  8
0
 10
21.348609404284783
 20
3.0
 30
0.0
  0
VERTEX
  8
0
 10
21.348609404284783
 20
3.1626843886662326
 30
0.0
  0
VERTEX
  8
0
 10
21.0
 20
3.1626843886662326
 30
0.0
  0
SEQEND
  0
SOLID
 62
227
  8
0
 10
21.0
 20
3.0
 30
0.0
 11
21.348609404284783
 21
3.0
 31
0.0
 13
21.348609404284783
 23
3.1626843886662326
 33
0.0
 12
21.0
 22
3.1626843886662326
 32
0.0
  0
POLYLINE
 62
254
  8
0
 66
1
 10
0.0
 20
0.0
 30
0.0
 70
9
  0
VERTEX
  8
0
 10
61.0
 20
3.0
 30
0.0
  0
VERTEX
  8
0
 10
61.23313408846965
 20
3.259185288064771
 30
0.0
  0
VERTEX
  8
0
 10
61.112180954039424
 20
3.367981196017274
 30
0.0
  0
VERTEX
  8
0
 10
60.87904686556978
 20
3.1087959079525027
 30
0.0
  0
SEQEND
  0
POLYLINE
 62
256
  8
0
 66
1
 10
0.0
 20
0.0
 30
0.0
 70
9
  0
VERTEX
  8
0
 10
21.0
 20
6.0
 30
0.0
  0
VERTEX
  8
0
 10
21.655745242075405
 20
6.0
 30
0.0
  0
VERTEX
  8
0
 10
21.655745242075405
 20
6.306014446301856
 30
0.0
  0
VERTEX
  8
0
 10
21.0
 20
6.306014446301856
 30
0.0
  0
SEQEND
  0
SOLID
 62
13
  8
0
 10
21.0
 20
6.0
 30
0.0
 11
21.655745242075405
 21
6.0
 31
0.0
 13
21.655745242075405
 23
6.306014446301856
 33
0.0
 12
21.0
 22
6.306014446301856
 32
0.0
  0
POLYLINE
 62
120
  8
0
 66
1
 10
0.0
 20
0.0
 30
0.0
 70
9
  0
VERTEX
  8
0
 10
61.0
 20
6.0
 30
0.0
  0
VERTEX
  8
0
 10
61.62498341271087
 20
6.198488176828776
 30
0.0
  0
VERTEX
  8
0
 10
61.532355596857435
 20
6.490147102760513
 30
0.0
  0
VERTEX
  8
0
 10
60.907372184146574
 20
6.2916589259317375
 30
0.0
  0
SEQEND
  0
POLYLINE
 62
256
  8
0
 66
1
 10
0.0
 20
0.0
 30
0.0
 70
9
  0
VERTEX
  8
0
 10
21.0
 20
9.0
 30
0.0
  0
VERTEX
  8
0
 10
21.636083717594286
 20
9.0
 30
0.0
  0
VERTEX
  8
0
 10
21.636083717594286
 20
9.296839068210668
 30
0.0
  0
VERTEX
  8
0
 10
21.0
 20
9.296839068210668
 30
0.0
  0
SEQEND
  0
SOLID
 62
107
  8
0
 10
21.0
 20
9.0
 30
0.0
 11
21.636083717594286
 21
9.0
 31
0.0
 13
21.636083717594286
 23
9.296839068210668
 33
0.0
 12
21.0
 22
9.296839068210668
 32
0.0
  0
POLYLINE
 62
94
  8
0
 66
1
 10
0.0
 20
0.0
 30
0.0
 70
9
  0
VERTEX
  8
0
 10
61.0
 20
9.0
 30
0.0
  0
VERTEX
  8
0
 10
61.113734725891426
 20
9.625832971259081
 30
0.0
  0
VERTEX
  8
0
 10
60.821679339303856
 20
9.67890917667508
 30
0.0
  0
VERTEX
  8
0
 10
60.70794461341243
 20
9.053076205416
 30
0.0
  0
SEQEND
  0
POLYLINE
 62
256
  8
0
 66
1
 10
0.0
 20
0.0
 30
0.0
 70
9
  0
VERTEX
  8
0
 10
21.0
 20
12.0
 30
0.0
  0
VERTEX
  8
0
 10
21.72221970283815
 20
12.0
 30
0.0
  0
VERTEX
  8
0
 10
21.72221970283815
 20
12.33703586132447
 30
0.0
  0
VERTEX
  8
0
 10
21.0
 20
12.33703586132447
 30
0.0
  0
SEQEND
  0
SOLID
 62
220
  8
0
 10
21.0
 20
12.0
 30
0.0
 11
21.72221970283815
 21
12.0
 31
0.0
 13
21.72221970283815
 23
12.33703586132447
 33
0.0
 12
21.0
 22
12.33703586132447
 32
0.0
  0
POLYLINE
 62
19
  8
0
 66
1
 10
0.0
 20
0.0
 30
0.0
 70
9
  0
VERTEX
  8
0
 10
61.0
 20
12.0
 30
0.0
  0
VERTEX
  8
0
 10
61.227845641306516
 20
12.68533762694401
 30
0.0
  0
VERTEX
  8
0
 10
60.90802141539931
 20
12.79166559288705
 30
0.0
  0
VERTEX
  8
0
 10
60.680175774092795
 20
12.10632796594304
 30
0.0
  0
SEQEND
  0
POLYLINE
 62
256
  8
0
 66
1
 10
0.0
 20
0.0
 30
0.0
 70
9
  0
VERTEX
  8
0
 10
21.0
 20
15.0
 30
0.0
  0
VERTEX
  8
0
 10
22.325232295326252
 20
15.0
 30
0.0
  0
VERTEX
  8
0
 10
22.325232295326252
 20
15.618441737818918
 30
0.0
  0
VERTEX
  8
0
 10
21.0
 20
15.618441737818918
 30
0.0
  0
SEQEND
  0
SOLID
 62
18
  8
0
 10
21.0
 20
15.0
 30
0.0
 11
22.325232295326252
 21
15.0
 31
0.0
 13
22.325232295326252
 23
15.618441737818918
 33
0.0
 12
21.0
 22
15.618441737818918
 32
0.0
  0
POLYLINE
 62
131
  8
0
 66
1
 10
0.0
 20
0.0
 30
0.0
 70
9
  0
VERTEX
  8
0
 10
61.0
 20
15.0
 30
0.0
  0
VERTEX
  8
0
 10
62.11737342820242
 20
15.712542811712295
 30
0.0
  0
VERTEX
  8
0
 10
61.78485344940335
 20
16.233983744873424
 30
0.0
  0
VERTEX
  8
0
 10
60.66748002120093
 20
15.521440933161129
 30
0.0
  0
SEQEND
  0
POLYLINE
 62
256
  8
0
 66
1
 10
0.0
 20
0.0
 30
0.0
 70
9
  0
VERTEX
  8
0
 10
21.0
 20
18.0
 30
0.0
  0
VERTEX
  8
0
 10
21.504062794737372
 20
18.0
 30
0.0
  0
VERTEX
  8
0
 10
21.504062794737372
 20
18.235229304210772
 30
0.0
  0
VERTEX
  8
0
 10
21.0
 20
18.235229304210772
 30
0.0
  0
SEQEND
  0
SOLID
 62
200
  8
0
 10
21.0
 20
18.0
 30
0.0
 11
21.504062794737372
 21
18.0
 31
0.0
 13
21.504062794737372
 23
18.235229304210772
 33
0.0
 12
21.0
 22
18.235229304210772
 32
0.0
  0
POLYLINE
 62
71
  8
0
 66
1
 10
0.0
 20
0.0
 30
0.0
 70
9
  0
VERTEX
  8
0
 10
61.0
 20
18.0
 30
0.0
  0
VERTEX
  8
0
 10
61.07197490700588
 20
18.49889769873186
 30
0.0
  0
VERTEX
  8
0
 10
60.83915598093102
 20
18.53248598866794
 30
0.0
  0
VERTEX
  8
0
 10
60.76718107392513
 20
18.03358828993608
 30
0.0
  0
SEQEND
  0
POLYLINE
 62
256
  8
0
 66
1
 10
0.0
 20
0.0
 30
0.0
 70
9
  0
VERTEX
  8
0
 10
21.0
 20
21.0
 30
0.0
  0
VERTEX
  8
0
 10
22.346785868504142
 20
21.0
 30
0.0
  0
VERTEX
  8
0
 10
22.346785868504142
 20
21.6285000719686
 30
0.0
  0
VERTEX
  8
0
 10
21.0
 20
21.6285000719686
 30
0.0
  0
SEQEND
  0
SOLID
 62
179
  8
0
 10
21.0
 20
21.0
 30
0.0
 11
22.346785868504142
 21
21.0
 31
0.0
 13
22.346785868504142
 23
21.6285000719686
 33
0.0
 12
21.0
 22
21.6285000719686
 32
0.0
  0
POLYLINE
 62
93
  8
0
 66
1
 10
0.0
 20
0.0
 30
0.0
 70
9
  0
VERTEX
  8
0
 10
61.0
 20
21.0
 30
0.0
  0
VERTEX
  8
0
 10
62.24090820330194
 20
21.523430039814684
 30
0.0
  0
VERTEX
  8
0
 10
61.99664085138843
 20
22.102520534688924
 30
0.0
  0
VERTEX
  8
0
 10
60.75573264808648
 20
21.57909049487424
 30
0.0
  0
SEQEND
  0
POLYLINE
 62
256
  8
0
 66
1
 10
0.0
 20
0.0
 30
0.0
 70
9
  0
VERTEX
  8
0
 10
21.0
 20
24.0
 30
0.0
  0
VERTEX
  8
0
 10
21.159506410065756
 20
24.0
 30
0.0
  0
VERTEX
  8
0
 10
21.159506410065756
 20
24.074436324697352
 30
0.0
  0
VERTEX
  8
0
 10
21.0
 20
24.074436324697352
 30
0.0
  0
SEQEND
  0
SOLID
 62
162
  8
0
 10
21.0
 20
24.0
 30
0.0
 11
21.159506410065756
 21
24.0
 31
0.0
 13
21.159506410065756
 23
24.074436324697352
 33
0.0
 12
21.0
 22
24.074436324697352
 32
0.0
  0
POLYLINE
 62
102
  8
0
 66
1
 10
0.0
 20
0.0
 30
0.0
 70
9
  0
VERTEX
  8
0
 10
61.0
 20
24.0
 30
0.0
  0
VERTEX
  8
0
 10
61.0080142735416
 20
24.159304947417414
 30
0.0
  0
VERTEX
  8
0
 10
60.9336719647468
 20
24.163044941736825
 30
0.0
  0
VERTEX
  8
0
 10
60.92565769120521
 20
24.00373999431941
 30
0.0
  0
SEQEND
  0
POLYLINE
 62
256
  8
0
 66
1
 10
0.0
 20
0.0
 30
0.0
 70
9
  0
VERTEX
  8
0
 10
21.0
 20
27.0
 30
0.0
  0
VERTEX
  8
0
 10
21.26024456759207
 20
27.0
 30
0.0
  0
VERTEX
  8
0
 10
21.26024456759207
 20
27.1214474648763
 30
0.0
  0
VERTEX
  8
0
 10
21.0
 20
27.1214474648763
 30
0.0
  0
SEQEND
  0
SOLID
 62
140
  8
0
 10
21.0
 20
27.0
 30
0.0
 11
21.26024456759207
 21
27.0
 31
0.0
 13
21.26024456759207
 23
27.1214474648763
 33
0.0
 12
21.0
 22
27.1214474648763
 32
0.0
  0
POLYLINE
 62
69
  8
0
 66
1
 10
0.0
 20
0.0
 30
0.0
 70
9
  0
VERTEX
  8
0
 10
61.0
 20
27.0
 30
0.0
  0
VERTEX
  8
0
 10
61.10989527651548
 20
27.235903080015436
 30
0.0
  0
VERTEX
  8
0
 10
60.99980717250828
 20
27.28718754238933
 30
0.0
  0
VERTEX
  8
0
 10
60.889911895992796
 20
27.05128446237389
 30
0.0
  0
SEQEND
  0
POLYLINE
 62
256
  8
0
 66
1
 10
0.0
 20
0.0
 30
0.0
 70
9
  0
VERTEX
  8
0
 10
24.0
 20
0.0
 30
0.0
  0
VERTEX
  8
0
 10
24.357289634120498
 20
0.0
 30
0.0
  0
VERTEX
  8
0
 10
24.357289634120498
 20
0.1667351625895651
 30
0.0
  0
VERTEX
  8
0
 10
24.0
 20
0.1667351625895651
 30
0.0
  0
SEQEND
  0
SOLID
 62
208
  8
0
 10
24.0
 20
0.0
 30
0.0
 11
24.357289634120498
 21
0.0
 31
0.0
 13
24.357289634120498
 23
0.1667351625895651
 33
0.0
 12
24.0
 22
0.1667351625895651
 32
0.0
  0
POLYLINE
 62
64
  8
0
 66
1
 10
0.0
 20
0.0
 30
0.0
 70
9
  0
VERTEX
  8
0
 10
64.0
 20
0.0
 30
0.0
  0
VERTEX
  8
0
 10
64.17102639155851
 20
0.3136970768758184
 30
0.0
  0
VERTEX
  8
0
 10
64.02463442234979
 20
0.39350939293645704
 30
0.0
  0
VERTEX
  8
0
 10
63.853608030791285
 20
0.07981231606063866
 30
0.0
  0
SEQEND
  0
POLYLINE
 62
256
  8
0
 66
1
 10
0.0
 20
0.0
 30
0.0
 70
9
  0
VERTEX
  8
0
 10
24.0
 20
3.0
 30
0.0
  0
VERTEX
  8
0
 10
24.4786743831082
 20
3.0
 30
0.0
  0
VERTEX
  8
0
 10
24.4786743831082
 20
3.2233813787838255
 30
0.0
  0
VERTEX
  8
0
 10
24.0
 20
3.2233813787838255
 30
0.0
  0
SEQEND
  0
SOLID
 62
160
  8
0
 10
24.0
 20
3.0
 30
0.0
 11
24.4786743831082
 21
3.0
 31
0.0
 13
24.4786743831082
 23
3.2233813787838255
 33
0.0
 12
24.0
 22
3.2233813787838255
 32
0.0
  0
POLYLINE
 62
110
  8
0
 66
1
 10
0.0
 20
0.0
 30
0.0
 70
9
  0
VERTEX
  8
0
 10
64.0
 20
3.0
 30
0.0
  0
VERTEX
  8
0
 10
64.01836761867104
 20
3.478321853596895
 30
0.0
  0
VERTEX
  8
0
 10
63.795150753659144
 20
3.4868934089767087
 30
0.0
  0
VERTEX
  8
0
 10
63.776783134988115
 20
3.0085715553798136
 30
0.0
  0
SEQEND
  0
POLYLINE
 62
256
  8
0
 66
1
 10
0.0
 20
0.0
 30
0.0
 70
9
  0
VERTEX
  8
0
 10
24.0
 20
6.0
 30
0.0
  0
VERTEX
  8
0
 10
24.466415112565993
 20
6.0
 30
0.0
  0
VERTEX
  8
0
 10
24.466415112565993
 20
6.21766038586413
 30
0.0
  0
VERTEX
  8
0
 10
24.0
 20
6.21766038586413
 30
0.0
  0
SEQEND
  0
SOLID
 62
216
  8
0
 10
24.0
 20
6.0
 30
0.0
 11
24.466415112565993
 21
6.0
 31
0.0
 13
24.466415112565993
 23
6.21766038586413
 33
0.0
 12
24.0
 22
6.21766038586413
 32
0.0
  0
POLYLINE
 62
62
  8
0
 66
1
 10
0.0
 20
0.0
 30
0.0
 70
9
  0
VERTEX
  8
0
 10
64.0
 20
6.0
 30
0.0
  0
VERTEX
  8
0
 10
64.0755634184611
 20
6.460253437814886
 30
0.0
  0
VERTEX
  8
0
 10
63.860778480814155
 20
6.495516366430068
 30
0.0
  0
VERTEX
  8
0
 10
63.78521506235305
 20
6.035262928615181
 30
0.0
  0
SEQEND
  0
POLYLINE
 62
256
  8
0
 66
1
 10
0.0
 20
0.0
 30
0.0
 70
9
  0
VERTEX
  8
0
 10
24.0
 20
9.0
 30
0.0
  0
VERTEX
  8
0
 10
24.373023456960762
 20
9.0
 30
0.0
  0
VERTEX
  8
0
 10
24.373023456960762
 20
9.174077613248356
 30
0.0
  0
VERTEX
  8
0
 10
24.0
 20
9.174077613248356
 30
0.0
  0
SEQEND
  0
SOLID
 62
131
  8
0
 10
24.0
 20
9.0
 30
0.0
 11
24.373023456960762
 21
9.0
 31
0.0
 13
24.373023456960762
 23
9.174077613248356
 33
0.0
 12
24.0
 22
9.174077613248356
 32
0.0
  0
POLYLINE
 62
223
  8
0
 66
1
 10
0.0
 20
0.0
 30
0.0
 70
9
  0
VERTEX
  8
0
 10
64.0
 20
9.0
 30
0.0
  0
VERTEX
  8
0
 10
64.34982679026112
 20
9.12949021684499
 30
0.0
  0
VERTEX
  8
0
 10
64.28939802240012
 20
9.292742718966844
 30
0.0
  0
VERTEX
  8
0
 10
63.939571232139
 20
9.163252502121853
 30
0.0
  0
SEQEND
  0
POLYLINE
 62
256
  8
0
 66
1
 10
0.0
 20
0.0
 30
0.0
 70
9
  0
VERTEX
  8
0
 10
24.0
 20
12.0
 30
0.0
  0
VERTEX
  8
0
 10
25.46651146675272
 20
12.0
 30
0.0
  0
VERTEX
  8
0
 10
25.46651146675272
 20
12.684372017817937
 30
0.0
  0
VERTEX
  8
0
 10
24.0
 20
12.684372017817937
 30
0.0
  0
SEQEND
  0
SOLID
 62
93
  8
0
 10
24.0
 20
12.0
 30
0.0
 11
25.46651146675272
 21
12.0
 31
0.0
 13
25.46651146675272
 23
12.684372017817937
 33
0.0
 12
24.0
 22
12.684372017817937
 32
0.0
  0
POLYLINE
 62
3
  8
0
 66
1
 10
0.0
 20
0.0
 30
0.0
 70
9
  0
VERTEX
  8
0
 10
64.0
 20
12.0
 30
0.0
  0
VERTEX
  8
0
 10
65.17417371150313
 20
12.878619358614518
 30
0.0
  0
VERTEX
  8
0
 10
64.76415134414968
 20
13.426567090649312
 30
0.0
  0
VERTEX
  8
0
 10
63.58997763264656
 20
12.547947732034793
 30
0.0
  0
SEQEND
  0
POLYLINE
 62
256
  8
0
 66
1
 10
0.0
 20
0.0
 30
0.0
 70
9
  0
VERTEX
  8
0
 10
24.0
 20
15.0
 30
0.0
  0
VERTEX
  8
0
 10
24.121460780599936
 20
15.0
 30
0.0
  0
VERTEX
  8
0
 10
24.121460780599936
 20
15.056681697613303
 30
0.0
  0
VERTEX
  8
0
 10
24.0
 20
15.056681697613303
 30
0.0
  0
SEQEND
  0
SOLID
 62
109
  8
0
 10
24.0
 20
15.0
 30
0.0
 11
24.121460780599936
 21
15.0
 31
0.0
 13
24.121460780599936
 23
15.056681697613303
 33
0.0
 12
24.0
 22
15.056681697613303
 32
0.0
  0
POLYLINE
 62
229
  8
0
 66
1
 10
0.0
 20
0.0
 30
0.0
 70
9
  0
VERTEX
  8
0
 10
64.0
 20
15.0
 30
0.0
  0
VERTEX
  8
0
 10
64.04731569445416
 20
15.111865751158552
 30
0.0
  0
VERTEX
  8
0
 10
63.99511167724683
 20
15.13394640857049
 30
0.0
  0
VERTEX
  8
0
 10
63.94779598279268
 20
15.022080657411937
 30
0.0
  0
SEQEND
  0
POLYLINE
 62
256
  8
0
 66
1
 10
0.0
 20
0.0
 30
0.0
 70
9
  0
VERTEX
  8
0
 10
24.0
 20
18.0
 30
0.0
  0
VERTEX
  8
0
 10
24.56986415526797
 20
18.0
 30
0.0
  0
VERTEX
  8
0
 10
24.56986415526797
 20
18.26593660579172
 30
0.0
  0
VERTEX
  8
0
 10
24.0
 20
18.26593660579172
 30
0.0
  0
SEQEND
  0
SOLID
 62
30
  8
0
 10
24.0
 20
18.0
 30
0.0
 11
24.56986415526797
 21
18.0
 31
0.0
 13
24.56986415526797
 23
18.26593660579172
 33
0.0
 12
24.0
 22
18.26593660579172
 32
0.0
  0
POLYLINE
 62
156
  8
0
 66
1
 10
0.0
 20
0.0
 30
0.0
 70
9
  0
VERTEX
  8
0
 10
64.0
 20
18.0
 30
0.0
  0
VERTEX
  8
0
 10
64.00651770889742
 20
18.569826881543865
 30
0.0
  0
VERTEX
  8
0
 10
63.740598497510284
 20
18.572868479029328
 30
0.0
  0
VERTEX
  8
0
 10
63.734080788612864
 20
18.003041597485463
 30
0.0
  0
SEQEND
  0
POLYLINE
 62
256
  8
0
 66
1
 10
0.0
 20
0.0
 30
0.0
 70
9
  0
VERTEX
  8
0
 10
24.0
 20
21.0
 30
0.0
  0
VERTEX
  8
0
 10
24.337167049727856
 20
21.0
 30
0.0
  0
VERTEX
  8
0
 10
24.337167049727856
 20
21.157344623206335
 30
0.0
  0
VERTEX
  8
0
 10
24.0
 20
21.157344623206335
 30
0.0
  0
SEQEND
  0
SOLID
 62
152
  8
0
 10
24.0
 20
21.0
 30
0.0
 11
24.337167049727856
 21
21.0
 31
0.0
 13
24.337167049727856
 23
21.157344623206335
 33
0.0
 12
24.0
 22
21.157344623206335
 32
0.0
  0
POLYLINE
 62
64
  8
0
 66
1
 10
0.0
 20
0.0
 30
0.0
 70
9
  0
VERTEX
  8
0
 10
64.0
 20
21.0
 30
0.0
  0
VERTEX
  8
0
 10
64.28241604441753
 20
21.184181424898764
 30
0.0
  0
VERTEX
  8
0
 10
64.19646471279812
 20
21.31597557896028
 30
0.0
  0
VERTEX
  8
0
 10
63.91404866838058
 20
21.131794154061517
 30
0.0
  0
SEQEND
  0
POLYLINE
 62
256
  8
0
 66
1
 10
0.0
 20
0.0
 30
0.0
 70
9
  0
VERTEX
  8
0
 10
24.0
 20
24.0
 30
0.0
  0
VERTEX
  8
0
 10
25.457001257084272
 20
24.0
 30
0.0
  0
VERTEX
  8
0
 10
25.457001257084272
 20
24.679933919972658
 30
0.0
  0
VERTEX
  8
0
 10
24.0
 20
24.679933919972658
 30
0.0
  0
SEQEND
  0
SOLID
 62
192
  8
0
 10
24.0
 20
24.0
 30
0.0
 11
25.457001257084272
 21
24.0
 31
0.0
 13
25.457001257084272
 23
24.679933919972658
 33
0.0
 12
24.0
 22
24.679933919972658
 32
0.0
  0
POLYLINE
 62
33
  8
0
 66
1
 10
0.0
 20
0.0
 30
0.0
 70
9
  0
VERTEX
  8
0
 10
64.0
 20
24.0
 30
0.0
  0
VERTEX
  8
0
 10
65.0001227272464
 20
25.05953159159619
 30
0.0
  0
VERTEX
  8
0
 10
64.50567465116818
 20
25.52625553097785
 30
0.0
  0
VERTEX
  8
0
 10
63.50555192392178
 20
24.466723939381655
 30
0.0
  0
SEQEND
  0
POLYLINE
 62
256
  8
0
 66
1
 10
0.0
 20
0.0
 30
0.0
 70
9
  0
VERTEX
  8
0
 10
24.0
 20
27.0
 30
0.0
  0
VERTEX
  8
0
 10
24.44934188767557
 20
27.0
 30
0.0
  0
VERTEX
  8
0
 10
24.44934188767557
 20
27.209692880915266
 30
0.0
  0
VERTEX
  8
0
 10
24.0
 20
27.209692880915266
 30
0.0
  0
SEQEND
  0
SOLID
 62
223
  8
0
 10
24.0
 20
27.0
 30
0.0
 11
24.44934188767557
 21
27.0
 31
0.0
 13
24.44934188767557
 23
27.209692880915266
 33
0.0
 12
24.0
 22
27.209692880915266
 32
0.0
  0
POLYLINE
 62
126
  8
0
 66
1
 10
0.0
 20
0.0
 30
0.0
 70
9
  0
VERTEX
  8
0
 10
64.0
 20
27.0
 30
0.0
  0
VERTEX
  8
0
 10
64.42224357717171
 20
27.1536830945715
 30
0.0
  0
VERTEX
  8
0
 10
64.35052479970501
 20
27.35073009725164
 30
0.0
  0
VERTEX
  8
0
 10
63.9282812225333
 20
27.197047002680137
 30
0.0
  0
SEQEND
  0
POLYLINE
 62
256
  8
0
 66
1
 10
0.0
 20
0.0
 30
0.0
 70
9
  0
VERTEX
  8
0
 10
27.0
 20
0.0
 30
0.0
  0
VERTEX
  8
0
 10
27.60313254246175
 20
0.0
 30
0.0
  0
VERTEX
  8
0
 10
27.60313254246175
 20
0.28146185314881617
 30
0.0
  0
VERTEX
  8
0
 10
27.0
 20
0.28146185314881617
 30
0.0
  0
SEQEND
  0
SOLID
 62
33
  8
0
 10
27.0
 20
0.0
 30
0.0
 11
27.60313254246175
 21
0.0
 31
0.0
 13
27.60313254246175
 23
0.28146185314881617
 33
0.0
 12
27.0
 22
0.28146185314881617
 32
0.0
  0
POLYLINE
 62
47
  8
0
 66
1
 10
0.0
 20
0.0
 30
0.0
 70
9
  0
VERTEX
  8
0
 10
67.0
 20
0.0
 30
0.0
  0
VERTEX
  8
0
 10
67.6031109875471
 20
0.005099066221552438
 30
0.0
  0
VERTEX
  8
0
 10
67.60073142331038
 20
0.2865508604102004
 30
0.0
  0
VERTEX
  8
0
 10
66.99762043576328
 20
0.28145179418864796
 30
0.0
  0
SEQEND
  0
POLYLINE
 62
256
  8
0
 66
1
 10
0.0
 20
0.0
 30
0.0
 70
9
  0
VERTEX
  8
0
 10
27.0
 20
3.0
 30
0.0
  0
VERTEX
  8
0
 10
27.26399765720003
 20
3.0
 30
0.0
  0
VERTEX
  8
0
 10
27.26399765720003
 20
3.123198906693348
 30
0.0
  0
VERTEX
  8
0
 10
27.0
 20
3.123198906693348
 30
0.0
  0
SEQEND
  0
SOLID
 62
239
  8
0
 10
27.0
 20
3.0
 30
0.0
 11
27.26399765720003
 21
3.0
 31
0.0
 13
27.26399765720003
 23
3.123198906693348
 33
0.0
 12
27.0
 22
3.123198906693348
 32
0.0
  0
POLYLINE
 62
85
  8
0
 66
1
 10
0.0
 20
0.0
 30
0.0
 70
9
  0
VERTEX
  8
0
 10
67.0
 20
3.0
 30
0.0
  0
VERTEX
  8
0
 10
67.15871198420216
 20
3.2109627196395563
 30
0.0
  0
VERTEX
  8
0
 10
67.06026271503704
 20
3.2850283122672312
 30
0.0
  0
VERTEX
  8
0
 10
66.90155073083487
 20
3.0740655926276754
 30
0.0
  0
SEQEND
  0
POLYLINE
 62
256
  8
0
 66
1
 10
0.0
 20
0.0
 30
0.0
 70
9
  0
VERTEX
  8
0
 10
27.0
 20
6.0
 30
0.0
  0
VERTEX
  8
0
 10
27.933304627942697
 20
6.0
 30
0.0
  0
VERTEX
  8
0
 10
27.933304627942697
 20
6.435542159706593
 30
0.0
  0
VERTEX
  8
0
 10
27.0
 20
6.435542159706593
 30
0.0
  0
SEQEND
  0
SOLID
 62
46
  8
0
 10
27.0
 20
6.0
 30
0.0
 11
27.933304627942697
 21
6.0
 31
0.0
 13
27.933304627942697
 23
6.435542159706593
 33
0.0
 12
27.0
 22
6.435542159706593
 32
0.0
  0
POLYLINE
 62
242
  8
0
 66
1
 10
0.0
 20
0.0
 30
0.0
 70
9
  0
VERTEX
  8
0
 10
67.0
 20
6.0
 30
0.0
  0
VERTEX
  8
0
 10
67.18529686944022
 20
6.914725422580411
 30
0.0
  0
VERTEX
  8
0
 10
66.75842500556936
 20
7.001197294985848
 30
0.0
  0
VERTEX
  8
0
 10
66.57312813612914
 20
6.086471872405436
 30
0.0
  0
SEQEND
  0
POLYLINE
 62
256
  8
0
 66
1
 10
0.0
 20
0.0
 30
0.0
 70
9
  0
VERTEX
  8
0
 10
27.0
 20
9.0
 30
0.0
  0
VERTEX
  8
0
 10
28.29985174599436
 20
9.0
 30
0.0
  0
VERTEX
  8
0
 10
28.29985174599436
 20
9.606597481464036
 30
0.0
  0
VERTEX
  8
0
 10
27.0
 20
9.606597481464036
 30
0.0
  0
SEQEND
  0
SOLID
 62
130
  8
0
 10
27.0
 20
9.0
 30
0.0
 11
28.29985174599436
 21
9.0
 31
0.0
 13
28.29985174599436
 23
9.606597481464036
 33
0.0
 12
27.0
 22
9.606597481464036
 32
0.0
  0
POLYLINE
 62
100
  8
0
 66
1
 10
0.0
 20
0.0
 30
0.0
 70
9
  0
VERTEX
  8
0
 10
67.0
 20
9.0
 30
0.0
  0
VERTEX
  8
0
 10
68.2845797849342
 20
9.19866891478795
 30
0.0
  0
VERTEX
  8
0
 10
68.19186762469981
 20
9.798139481090573
 30
0.0
  0
VERTEX
  8
0
 10
66.90728783976563
 20
9.599470566302621
 30
0.0
  0
SEQEND
  0
POLYLINE
 62
256
  8
0
 66
1
 10
0.0
 20
0.0
 30
0.0
 70
9
  0
VERTEX
  8
0
 10
27.0
 20
12.0
 30
0.0
  0
VERTEX
  8
0
 10
28.11547906063538
 20
12.0
 30
0.0
  0
VERTEX
  8
0
 10
28.11547906063538
 20
12.520556894963178
 30
0.0
  0
VERTEX
  8
0
 10
27.0
 20
12.520556894963178
 30
0.0
  0
SEQEND
  0
SOLID
 62
66
  8
0
 10
27.0
 20
12.0
 30
0.0
 11
28.11547906063538
 21
12.0
 31
0.0
 13
28.11547906063538
 23
12.520556894963178
 33
0.0
 12
27.0
 22
12.520556894963178
 32
0.0
  0
POLYLINE
 62
127
  8
0
 66
1
 10
0.0
 20
0.0
 30
0.0
 70
9
  0
VERTEX
  8
0
 10
67.0
 20
12.0
 30
0.0
  0
VERTEX
  8
0
 10
67.7503732899958
 20
12.825368681485346
 30
0.0
  0
VERTEX
  8
0
 10
67.36520123863598
 20
13.17554288348339
 30
0.0
  0
VERTEX
  8
0
 10
66.61482794864017
 20
12.350174201998044
 30
0.0
  0
SEQEND
  0
POLYLINE
 62
256
  8
0
 66
1
 10
0.0
 20
0.0
 30
0.0
 70
9
  0
VERTEX
  8
0
 10
27.0
 20
15.0
 30
0.0
  0
VERTEX
  8
0
 10
27.24160836462847
 20
15.0
 30
0.0
  0
VERTEX
  8
0
 10
27.24160836462847
 20
15.112750570159951
 30
0.0
  0
VERTEX
  8
0
 10
27.0
 20
15.112750570159951
 30
0.0
  0
SEQEND
  0
SOLID
 62
79
  8
0
 10
27.0
 20
15.0
 30
0.0
 11
27.24160836462847
 21
15.0
 31
0.0
 13
27.24160836462847
 23
15.112750570159951
 33
0.0
 12
27.0
 22
15.112750570159951
 32
0.0
  0
POLYLINE
 62
105
  8
0
 66
1
 10
0.0
 20
0.0
 30
0.0
 70
9
  0
VERTEX
  8
0
 10
67.0
 20
15.0
 30
0.0
  0
VERTEX
  8
0
 10
67.2003862385125
 20
15.134981321942167
 30
0.0
  0
VERTEX
  8
0
 10
67.13739495493948
 20
15.228494899914665
 30
0.0
  0
VERTEX
  8
0
 10
66.93700871642699
 20
15.0935135779725
 30
0.0
  0
SEQEND
  0
POLYLINE
 62
256
  8
0
 66
1
 10
0.0
 20
0.0
 30
0.0
 70
9
  0
VERTEX
  8
0
 10
27.0
 20
18.0
 30
0.0
  0
VERTEX
  8
0
 10
27.58410983348406
 20
18.0
 30
0.0
  0
VERTEX
  8
0
 10
27.58410983348406
 20
18.27258458895923
 30
0.0
  0
VERTEX
  8
0
 10
27.0
 20
18.27258458895923
 30
0.0
  0
SEQEND
  0
SOLID
 62
254
  8
0
 10
27.0
 20
18.0
 30
0.0
 11
27.58410983348406
 21
18.0
 31
0.0
 13
27.58410983348406
 23
18.27258458895923
 33
0.0
 12
27.0
 22
18.27258458895923
 32
0.0
  0
POLYLINE
 62
226
  8
0
 66
1
 10
0.0
 20
0.0
 30
0.0
 70
9
  0
VERTEX
  8
0
 10
67.0
 20
18.0
 30
0.0
  0
VERTEX
  8
0
 10
67.47909268435814
 20
18.334147418615338
 30
0.0
  0
VERTEX
  8
0
 10
67.32315722233764
 20
18.557724004649135
 30
0.0
  0
VERTEX
  8
0
 10
66.8440645379795
 20
18.223576586033797
 30
0.0
  0
SEQEND
  0
POLYLINE
 62
256
  8
0
 66
1
 10
0.0
 20
0.0
 30
0.0
 70
9
  0
VERTEX
  8
0
 10
27.0
 20
21.0
 30
0.0
  0
VERTEX
  8
0
 10
28.35405202624938
 20
21.0
 30
0.0
  0
VERTEX
  8
0
 10
28.35405202624938
 20
21.631890945583045
 30
0.0
  0
VERTEX
  8
0
 10
27.0
 20
21.631890945583045
 30
0.0
  0
SEQEND
  0
SOLID
 62
183
  8
0
 10
27.0
 20
21.0
 30
0.0
 11
28.35405202624938
 21
21.0
 31
0.0
 13
28.35405202624938
 23
21.631890945583045
 33
0.0
 12
27.0
 22
21.631890945583045
 32
0.0
  0
POLYLINE
 62
132
  8
0
 66
1
 10
0.0
 20
0.0
 30
0.0
 70
9
  0
VERTEX
  8
0
 10
67.0
 20
21.0
 30
0.0
  0
VERTEX
  8
0
 10
67.04193909534393
 20
22.35340237995645
 30
0.0
  0
VERTEX
  8
0
 10
66.41035131803093
 20
22.37297395778362
 30
0.0
  0
VERTEX
  8
0
 10
66.36841222268698
 20
21.019571577827172
 30
0.0
  0
SEQEND
  0
POLYLINE
 62
256
  8
0
 66
1
 10
0.0
 20
0.0
 30
0.0
 70
9
  0
VERTEX
  8
0
 10
27.0
 20
24.0
 30
0.0
  0
VERTEX
  8
0
 10
28.25746892035062
 20
24.0
 30
0.0
  0
VERTEX
  8
0
 10
28.25746892035062
 20
24.586818829496956
 30
0.0
  0
VERTEX
  8
0
 10
27.0
 20
24.586818829496956
 30
0.0
  0
SEQEND
  0
SOLID
 62
194
  8
0
 10
27.0
 20
24.0
 30
0.0
 11
28.25746892035062
 21
24.0
 31
0.0
 13
28.25746892035062
 23
24.586818829496956
 33
0.0
 12
27.0
 22
24.586818829496956
 32
0.0
  0
POLYLINE
 62
177
  8
0
 66
1
 10
0.0
 20
0.0
 30
0.0
 70
9
  0
VERTEX
  8
0
 10
67.0
 20
24.0
 30
0.0
  0
VERTEX
  8
0
 10
67.33617154098602
 20
25.211699954889347
 30
0.0
  0
VERTEX
  8
0
 10
66.77071156203765
 20
25.36858000734949
 30
0.0
  0
VERTEX
  8
0
 10
66.43454002105163
 20
24.15688005246014
 30
0.0
  0
SEQEND
  0
POLYLINE
 62
256
  8
0
 66
1
 10
0.0
 20
0.0
 30
0.0
 70
9
  0
VERTEX
  8
0
 10
27.0
 20
27.0
 30
0.0
  0
VERTEX
  8
0
 10
27.91817861033142
 20
27.0
 30
0.0
  0
VERTEX
  8
0
 10
27.91817861033142
 20
27.428483351487998
 30
0.0
  0
VERTEX
  8
0
 10
27.0
 20
27.428483351487998
 30
0.0
  0
SEQEND
  0
SOLID
 62
149
  8
0
 10
27.0
 20
27.0
 30
0.0
 11
27.91817861033142
 21
27.0
 31
0.0
 13
27.91817861033142
 23
27.428483351487998
 33
0.0
 12
27.0
 22
27.428483351487998
 32
0.0
  0
POLYLINE
 62
171
  8
0
 66
1
 10
0.0
 20
0.0
 30
0.0
 70
9
  0
VERTEX
  8
0
 10
67.0
 20
27.0
 30
0.0
  0
VERTEX
  8
0
 10
67.02780809641524
 20
27.91775741361424
 30
0.0
  0
VERTEX
  8
0
 10
66.59952130339526
 20
27.930734525274683
 30
0.0
  0
VERTEX
  8
0
 10
66.57171320698002
 20
27.012977111660447
 30
0.0
  0
SEQEND
  0
ENDSEC
  0
EOF
